<?xml version="1.0" encoding="UTF-8"?>
<svg id="Layer_1" data-name="Layer 1" xmlns="http://www.w3.org/2000/svg" xmlns:xlink="http://www.w3.org/1999/xlink" viewBox="0 0 1024 1024">
  <defs>
    <linearGradient id="linear-gradient" x1="0" y1="0" x2="1024" y2="1024" gradientUnits="userSpaceOnUse">
      <stop offset="0" stop-color="#00B1FF"/>
      <stop offset="0.5" stop-color="#0060FF"/>
      <stop offset="1" stop-color="#002DFF"/>
    </linearGradient>
  </defs>
  <rect x="0" y="0" width="1024" height="1024" rx="512" ry="512" style="fill: url(#linear-gradient);"/>
  <g>
    <path d="M369.62,468.68c.16-.16-.21-.88,0-1.37.16-.38.79-.56.92-.92,1.01-2.81,1.56-5.43,2.75-8.24,15.56-37.03,51.08-68.79,89.3-80.14,3.8-1.13,8.99-3.1,12.82-3.66,1.55-.23,3.42.16,5.04,0v-115.86l2.29-2.29c11.5.42,23.36-.57,34.8,0,90.55,4.49,179.64,60.55,223.01,143.33,12.81,24.45,22.46,52.47,26.56,78.76,18.07,115.77-45.71,227.04-155.24,271.55-19.13,7.77-40.67,13.77-60.45,16.49-11.28,1.55-22.5.77-33.89,1.83-30.81,2.88-69.93-5.86-98-16.49-66.55-25.19-122.02-79.81-147.91-145.16-15.49-39.1-19.33-89.47-17.26-133.64.18-3.76,0,0,.78-2.82.1-.37,1.06-.88,1.37-1.37h113.11ZM616.99,512.39c0-60.13-48.75-108.88-108.88-108.88s-108.88,48.75-108.88,108.88,48.75,108.88,108.88,108.88,108.88-48.75,108.88-108.88Z" style="fill: #fff;"/>
    <path d="M255.14,288.71c.05-.34.84-.56.92-.92.37-1.85.45-4.69.92-6.41.33-1.21,4.69-9,5.5-10.07,3.29-4.38,12.31-11.41,16.94-13.28,3.53-1.42,7.93-1.34,10.99-2.75h141.96c.47,1.18,2.19.82,2.29.92s-.26,1.82.92,2.29v79.68c-.8.59-1.52,1.83-2.29,2.29-.2.12-.63-.13-.92,0-1.92.87-2.5.53-3.66.92-38.29,12.61-68.51,41.79-89.3,76.47-.98,1.64-1.74,4.9-2.75,6.41-.33.5-2.98,3.21-3.21,3.21h-76.93c-.1,0-1.37-1.28-1.37-1.37v-137.38Z" style="fill: #fff;"/>
  </g>
</svg>