<?xml version="1.0" encoding="UTF-8"?>
<svg version="1.1" xmlns="http://www.w3.org/2000/svg" width="4877" height="1183">
<path d="M0 0 C0.99507568 0.52762939 0.99507568 0.52762939 2.01025391 1.06591797 C23.99671804 12.77203969 45.23113579 28.57169473 61 48 C61.88773012 49.05232864 62.77578115 50.10438661 63.6640625 51.15625 C71.73954881 60.8553299 78.47326236 71.21129568 85 82 C87.73830161 79.36094014 89.68199273 76.57627525 91.75 73.375 C95.27474498 68.03350807 98.95149926 62.9535548 103 58 C103.80050781 57.01386719 104.60101562 56.02773438 105.42578125 55.01171875 C115.1681689 43.16588147 125.77474076 32.30349917 138 23 C138.93658447 22.28142822 138.93658447 22.28142822 139.89208984 21.54833984 C176.71111399 -6.51382169 219.09077673 -22.93891728 265 -28 C266.18207031 -28.13277344 267.36414062 -28.26554687 268.58203125 -28.40234375 C331.39951734 -34.05669207 399.55942674 -18.70151695 448.77734375 22.07421875 C452.07618899 24.93244495 455.33251515 27.83294488 458.5546875 30.77734375 C460.90151662 32.91048395 463.29034586 34.98632073 465.6875 37.0625 C469.84721314 40.77290614 473.46203982 44.69895036 477 49 C477.42120117 49.49822266 477.84240234 49.99644531 478.27636719 50.50976562 C504.40649485 81.45860159 520.16671636 118.26153179 528.1875 157.75 C528.5446106 159.44866211 528.5446106 159.44866211 528.90893555 161.18164062 C533.9902622 187.55538233 534.4466879 214.32579403 534.34819686 241.07954907 C534.33497021 245.6093613 534.33964429 250.13916493 534.34190369 254.66899109 C534.34346 262.4763757 534.33422546 270.28368382 534.31719017 278.09104919 C534.2925778 289.3785137 534.28497246 300.66594205 534.2812262 311.95343047 C534.27469612 330.27642892 534.2548296 348.5993868 534.22631836 366.92236328 C534.19868782 384.6980774 534.17749856 402.4737804 534.16479492 420.24951172 C534.16400675 421.34927993 534.16321858 422.44904813 534.16240653 423.58214265 C534.15849079 429.10057272 534.15469981 434.61900286 534.15097082 440.13743305 C534.11998241 485.75832476 534.06473822 531.37914125 534 577 C483.84 577 433.68 577 382 577 C380.67485563 574.34971126 380.87390411 572.36401984 380.87250805 569.3944788 C380.8695004 568.19492591 380.86649275 566.99537302 380.86339396 565.75947005 C380.86508179 564.41623046 380.86685287 563.07299097 380.86869812 561.72975159 C380.86699701 560.31183706 380.8648478 558.89392302 380.86228687 557.47600979 C380.85767867 554.38344042 380.85627118 551.29089109 380.85725212 548.19831848 C380.85884131 543.1658906 380.85364987 538.13348268 380.84762573 533.10105896 C380.83950002 525.7892463 380.83456413 518.47743715 380.83133507 511.1656208 C380.82583615 499.58532878 380.80893232 488.00506619 380.78999329 476.42478943 C380.78363549 472.46024804 380.77732705 468.49570658 380.77101612 464.53116512 C380.76943236 463.54011791 380.7678486 462.5490707 380.76621684 461.52799176 C380.74826507 450.23554156 380.73205052 438.94308925 380.71704102 427.65063477 C380.71566514 426.61811421 380.71428927 425.58559365 380.71287171 424.5217846 C380.6910182 407.85004863 380.68020516 391.17832024 380.67267027 374.50657249 C380.66456664 357.36518693 380.64116489 340.22386582 380.6047166 323.08251709 C380.58281206 312.5275823 380.5729898 301.97278052 380.57921693 291.4178242 C380.58241964 284.15797486 380.57087851 276.89823798 380.54832252 269.63842345 C380.53579645 265.4649599 380.52930883 261.29174719 380.54073906 257.11827469 C380.64713521 214.20918592 374.77754181 174.45794716 346 141 C343.47288165 138.4946203 340.75402971 136.25204102 338 134 C337.14664063 133.29746094 336.29328125 132.59492187 335.4140625 131.87109375 C311.20791955 112.80461129 282.04904176 105.77974949 251.6875 105.75 C250.97546417 105.74899292 250.26342834 105.74798584 249.52981567 105.74694824 C238.11592473 105.75785267 227.15194667 106.45411894 216 109 C214.07994141 109.41765625 214.07994141 109.41765625 212.12109375 109.84375 C190.31701172 115.11856442 171.91218063 125.28396335 156 141 C155.35933594 141.56847656 154.71867187 142.13695312 154.05859375 142.72265625 C137.50349608 157.74131794 128.43319261 182.15925895 123.8125 203.375 C123.65749023 204.08052002 123.50248047 204.78604004 123.34277344 205.51293945 C122.83536505 208.00106455 122.41427527 210.49453305 122 213 C121.83031236 214.00694412 121.66062471 215.01388824 121.48579502 216.05134583 C119.35570644 231.0235532 119.6960382 246.12256462 119.69798481 261.21033096 C119.69633142 265.44187339 119.68317518 269.67338289 119.67144775 273.90490723 C119.65267726 281.21814852 119.64090298 288.53137335 119.63390923 295.84463501 C119.62369889 306.41918497 119.6016112 316.99368512 119.57652331 327.56820905 C119.53603233 344.73035806 119.50352279 361.89251184 119.47680664 379.0546875 C119.47520934 380.07956437 119.47361204 381.10444125 119.47196633 382.160375 C119.47036743 383.18660396 119.46876853 384.21283292 119.46712118 385.27015972 C119.44437799 399.85719379 119.41974446 414.44422302 119.39282227 429.03125 C119.38997805 430.57395315 119.38997805 430.57395315 119.38707637 432.14782202 C119.35534785 449.26919032 119.31961131 466.39054888 119.28178078 483.51190472 C119.25871375 494.06863836 119.2397695 504.62536534 119.22611404 515.18211544 C119.216617 522.3990744 119.20379331 529.61602215 119.18830519 536.83297074 C119.17950643 541.00121298 119.17242373 545.16944129 119.16966438 549.33769226 C119.16712794 553.14648724 119.16010366 556.95524553 119.14939214 560.76402605 C119.14633213 562.14777681 119.1449958 563.53153259 119.14548045 564.91528666 C119.14590512 566.78380505 119.13970013 568.65232154 119.13307858 570.52082825 C119.13150468 571.56229917 119.12993078 572.60377008 119.12830919 573.67680073 C119 576 119 576 118 577 C116.05105041 577.09664967 114.09854545 577.12187121 112.14720154 577.12025452 C110.87528961 577.12162918 109.60337769 577.12300385 108.29292297 577.12442017 C106.87033058 577.12088055 105.44773842 577.11724573 104.02514648 577.11352539 C102.53733319 577.11324353 101.04951976 577.11340124 99.56170654 577.1139679 C95.51023 577.1142559 91.4587828 577.10835867 87.40731311 577.10139394 C83.17788003 577.09516092 78.94844636 577.09455664 74.7190094 577.09336853 C66.70440278 577.09025506 58.68980973 577.08204146 50.67520911 577.07201904 C41.55323316 577.06085839 32.43125658 577.05534758 23.30927551 577.05032361 C4.5395093 577.03985886 -14.23024426 577.02225912 -33 577 C-34.32471474 574.35057052 -34.12734402 572.36472427 -34.13028526 569.39612961 C-34.13390961 568.19697662 -34.13753396 566.99782363 -34.14126813 565.76233268 C-34.14027137 564.41957833 -34.13918923 563.07682404 -34.13803101 561.73406982 C-34.14044762 560.31671642 -34.14330944 558.89936372 -34.14658034 557.48201203 C-34.15435664 553.57265456 -34.15595401 549.66331461 -34.15663147 545.75395036 C-34.15846735 541.54220432 -34.16607264 537.33046863 -34.17311096 533.11872864 C-34.18465378 525.81181721 -34.1928897 518.5049081 -34.19923019 511.19799042 C-34.20955569 499.63167297 -34.23012273 488.06538429 -34.25234985 476.49908447 C-34.25983063 472.54050837 -34.26724435 468.58193214 -34.27463722 464.62335587 C-34.27648779 463.63384443 -34.27833835 462.644333 -34.280245 461.62483637 C-34.30118814 450.35096795 -34.32000464 439.07709631 -34.33789062 427.80322266 C-34.33952881 426.77238116 -34.34116699 425.74153967 -34.34285481 424.67946056 C-34.36906966 408.02051635 -34.38774969 391.36156994 -34.40448253 374.70261392 C-34.42195513 357.58273068 -34.45086134 340.46289047 -34.4893719 323.34304166 C-34.5126761 312.79579211 -34.52675781 302.24861281 -34.52869953 291.70133731 C-34.53082269 284.45322007 -34.54386598 277.20517232 -34.56517886 269.95708635 C-34.57710694 265.7863076 -34.58442783 261.61566668 -34.57846642 257.4448719 C-34.52438406 213.8094235 -39.93043545 171.37726481 -71.8125 138.75 C-96.44272961 114.40837501 -130.09052384 105.78194882 -163.8125 105.75 C-164.54821228 105.74899292 -165.28392456 105.74798584 -166.04193115 105.74694824 C-177.59970167 105.7576426 -188.7096654 106.40143092 -200 109 C-201.918125 109.41765625 -201.918125 109.41765625 -203.875 109.84375 C-222.61717286 114.37310844 -239.16824914 122.66384011 -254 135 C-254.66386719 135.52980469 -255.32773438 136.05960938 -256.01171875 136.60546875 C-281.69453487 157.84803375 -292.64057641 192.94115719 -295.78154278 224.98834407 C-296.20222732 230.78791011 -296.15055077 236.59536789 -296.15148926 242.40724182 C-296.15534588 243.85059139 -296.15963454 245.29393985 -296.16431475 246.73728698 C-296.17588147 250.68050986 -296.18142132 254.62372122 -296.18594956 258.56695759 C-296.19192639 262.82792636 -296.20358671 267.08888002 -296.21458435 271.34983826 C-296.23289064 278.72486025 -296.24775297 286.09988262 -296.26036072 293.47491646 C-296.27868325 304.13896428 -296.30334569 314.8029904 -296.32973462 325.46702098 C-296.37247745 342.77170818 -296.41160829 360.07640133 -296.44775391 377.38110352 C-296.44991671 378.41592013 -296.45207951 379.45073675 -296.45430785 380.51691144 C-296.47183869 388.91821989 -296.48919191 397.3195287 -296.50651073 405.72083759 C-296.5216793 413.07797066 -296.53690987 420.4351036 -296.55224609 427.79223633 C-296.55440496 428.82851815 -296.55656383 429.86479997 -296.55878812 430.93248428 C-296.59484944 448.18471382 -296.63479243 465.43693224 -296.67754889 482.68914646 C-296.70374081 493.3337038 -296.72639098 503.97825771 -296.74453247 514.62283187 C-296.75716434 521.90480284 -296.77327701 529.18676057 -296.79218161 536.46871794 C-296.80297476 540.67539032 -296.8120806 544.88204982 -296.81687737 549.08873367 C-296.82128601 552.93296803 -296.83019916 556.77716357 -296.84282058 560.62137949 C-296.84657973 562.01812456 -296.84861873 563.41487544 -296.84884077 564.81162555 C-296.84937602 566.69777061 -296.85654368 568.58391043 -296.86412811 570.47004032 C-296.86624408 571.52138127 -296.86836005 572.57272223 -296.87054014 573.655922 C-297 576 -297 576 -298 577 C-299.94664187 577.09883795 -301.89692002 577.12632237 -303.84606934 577.12698364 C-305.1165361 577.12980347 -306.38700287 577.13262329 -307.69596863 577.13552856 C-309.11697402 577.13358397 -310.53797927 577.13153578 -311.95898438 577.12939453 C-313.44517561 577.13074852 -314.93136651 577.13252844 -316.41755676 577.13470459 C-320.46496459 577.13927922 -324.51234704 577.13748924 -328.55975533 577.1343255 C-332.78605342 577.13180205 -337.01234928 577.1341394 -341.23864746 577.13571167 C-348.33732495 577.13753341 -355.43599205 577.13512694 -362.53466797 577.13037109 C-370.75360811 577.12492846 -378.97252345 577.12669112 -387.19146299 577.1321975 C-394.23517937 577.1367285 -401.27888825 577.13737924 -408.32260561 577.13475883 C-412.53515816 577.13319598 -416.74769904 577.13300249 -420.96025085 577.13629532 C-424.91970169 577.13917385 -428.87912039 577.13719868 -432.83856773 577.13140106 C-434.2958998 577.13007337 -435.75323455 577.13046774 -437.21056557 577.13266373 C-439.19168632 577.13537482 -441.17281294 577.13138077 -443.15393066 577.12698364 C-444.26523598 577.12660662 -445.37654129 577.12622959 -446.52152252 577.12584114 C-449 577 -449 577 -450 576 C-450.10009165 572.8553325 -450.13357838 569.73255849 -450.12584114 566.58740997 C-450.12729458 565.58197338 -450.12874802 564.57653679 -450.13024551 563.54063243 C-450.13393372 560.12639813 -450.13040612 556.7122077 -450.12698364 553.29797363 C-450.12813435 550.84356682 -450.12972153 548.38916017 -450.13171089 545.93475389 C-450.13503134 540.57512553 -450.13520527 535.21551046 -450.13266373 529.85588264 C-450.12889467 521.88617449 -450.13080797 513.91647487 -450.13387203 505.94676678 C-450.13914914 491.71619219 -450.13867687 477.48562208 -450.13579312 463.25504707 C-450.13328182 450.8019533 -450.13261887 438.34886118 -450.13381577 425.89576721 C-450.13389215 425.07110474 -450.13396854 424.24644227 -450.13404724 423.39679003 C-450.13435855 420.04957894 -450.13467695 416.70236784 -450.135007 413.35515675 C-450.13806896 381.9281278 -450.13528784 350.50110171 -450.1299101 319.0740732 C-450.12516417 291.1266918 -450.12558878 263.17931496 -450.13037109 235.23193359 C-450.13572073 203.86396385 -450.13785185 172.49599663 -450.13475883 141.12802649 C-450.13443809 137.78676192 -450.13412525 134.44549735 -450.13381577 131.10423279 C-450.13373669 130.28147218 -450.13365761 129.45871156 -450.13357614 128.61101881 C-450.1324366 116.16292481 -450.13377278 103.71483264 -450.13629532 91.26673889 C-450.13914795 77.11881145 -450.13845395 62.9708892 -450.13301457 48.8229624 C-450.13006777 40.89583495 -450.12990169 32.96871873 -450.13366075 25.04159155 C-450.13615215 19.13887485 -450.13347047 13.2361682 -450.12868617 7.33345264 C-450.1275608 4.93307702 -450.12815579 2.53269991 -450.13056196 0.13232523 C-450.13356282 -3.10760867 -450.13052473 -6.34747948 -450.12584114 -9.58740997 C-450.12818231 -10.53908265 -450.13052347 -11.49075533 -450.13293558 -12.47126657 C-450.11415033 -18.88584967 -450.11415033 -18.88584967 -449 -20 C-447.05335813 -20.09883795 -445.10307998 -20.12632237 -443.15393066 -20.12698364 C-441.24823051 -20.13121338 -441.24823051 -20.13121338 -439.30403137 -20.13552856 C-437.88302598 -20.13358397 -436.46202073 -20.13153578 -435.04101562 -20.12939453 C-433.55482439 -20.13074852 -432.06863349 -20.13252844 -430.58244324 -20.13470459 C-426.53503541 -20.13927922 -422.48765296 -20.13748924 -418.44024467 -20.1343255 C-414.21394658 -20.13180205 -409.98765072 -20.1341394 -405.76135254 -20.13571167 C-398.66267505 -20.13753341 -391.56400795 -20.13512694 -384.46533203 -20.13037109 C-376.24639189 -20.12492846 -368.02747655 -20.12669112 -359.80853701 -20.1321975 C-352.76482063 -20.1367285 -345.72111175 -20.13737924 -338.67739439 -20.13475883 C-334.46484184 -20.13319598 -330.25230096 -20.13300249 -326.03974915 -20.13629532 C-322.08029831 -20.13917385 -318.12087961 -20.13719868 -314.16143227 -20.13140106 C-312.7041002 -20.13007337 -311.24676545 -20.13046774 -309.78943443 -20.13266373 C-307.80831368 -20.13537482 -305.82718706 -20.13138077 -303.84606934 -20.12698364 C-302.17911137 -20.1264181 -302.17911137 -20.1264181 -300.47847748 -20.12584114 C-298 -20 -298 -20 -297 -19 C-296.87619162 -16.94521547 -296.82201797 -14.8862104 -296.79467773 -12.82788086 C-296.78477814 -12.18399918 -296.77487854 -11.54011749 -296.76467896 -10.87672424 C-296.73298472 -8.73946869 -296.70827551 -6.60219087 -296.68359375 -4.46484375 C-296.66303104 -2.98653064 -296.64203476 -1.50822351 -296.62062073 -0.02992249 C-296.56532941 3.86792171 -296.51595143 7.76581958 -296.46777344 11.66375732 C-296.41760981 15.63851723 -296.36189699 19.61319884 -296.30664062 23.58789062 C-296.19897276 31.39186085 -296.09754713 39.19589602 -296 47 C-295.57408066 46.54280579 -295.14816132 46.08561157 -294.70933533 45.61456299 C-292.75432412 43.51769258 -290.79710258 41.4228975 -288.83984375 39.328125 C-288.16997437 38.60898926 -287.50010498 37.88985352 -286.80993652 37.14892578 C-272.78658863 22.15298395 -256.86537713 10.05342993 -239 0 C-238.40928711 -0.3398291 -237.81857422 -0.6796582 -237.20996094 -1.02978516 C-210.95418121 -16.08761165 -180.96233954 -24.5371992 -151 -28 C-149.59621094 -28.16822266 -149.59621094 -28.16822266 -148.1640625 -28.33984375 C-97.79708109 -33.26851619 -44.62696294 -24.03685748 0 0 Z " fill="#ffffff" transform="translate(4178,394)"/>
<path d="M0 0 C1.61213379 -0.00930542 1.61213379 -0.00930542 3.25683594 -0.01879883 C5.01302246 0.00210815 5.01302246 0.00210815 6.8046875 0.0234375 C8.65368652 0.0375769 8.65368652 0.0375769 10.54003906 0.05200195 C105.23564174 1.53494407 203.09920392 33.60980424 275.6796875 95.3984375 C276.739275 96.28422313 277.79918881 97.16961853 278.859375 98.0546875 C292.63494528 109.62901706 305.82654777 121.84688408 317.6796875 135.3984375 C318.61581231 136.44798188 319.55201247 137.49745905 320.48828125 138.546875 C376.54769762 202.03268533 410.99673857 285.85642921 415.6796875 370.3984375 C415.73463379 371.33848633 415.78958008 372.27853516 415.84619141 373.24707031 C421.3585816 470.12854756 392.32775913 568.21705824 328.6796875 642.3984375 C326.14891175 645.23384366 323.59358259 648.04368628 321.01953125 650.83984375 C319.01062902 653.03655653 317.05454637 655.26393119 315.1171875 657.5234375 C308.84410024 664.72423484 301.94825545 671.22015474 294.6796875 677.3984375 C293.74640625 678.20925781 292.813125 679.02007813 291.8515625 679.85546875 C268.80147071 699.77754115 243.08034183 716.28691022 215.6171875 729.45996094 C213.72014 730.37884332 211.84028056 731.32677272 209.9609375 732.28125 C172.44924271 751.01085877 130.0875699 761.37694888 88.6796875 766.3984375 C87.63352264 766.5297406 87.63352264 766.5297406 86.56622314 766.66369629 C73.26453907 768.30037444 60.09484901 768.71126189 46.69970703 768.65917969 C43.44674858 768.64849355 40.19434776 768.65912798 36.94140625 768.671875 C17.98936553 768.68509551 -0.88843212 767.53159691 -19.6328125 764.6484375 C-20.74124512 764.47997314 -21.84967773 764.31150879 -22.99169922 764.13793945 C-65.33229507 757.44112124 -106.3354742 744.27817643 -144.3203125 724.3984375 C-145.24650391 723.91648926 -145.24650391 723.91648926 -146.19140625 723.42480469 C-181.7285689 704.73586344 -215.22517439 677.96993459 -241.3203125 647.3984375 C-242.15691406 646.42777344 -242.99351562 645.45710937 -243.85546875 644.45703125 C-288.22709703 592.75085677 -317.11984186 531.06372181 -330.3203125 464.3984375 C-330.50190918 463.50576172 -330.68350586 462.61308594 -330.87060547 461.69335938 C-336.02931289 436.01653513 -337.85642927 409.55069492 -338.3203125 383.3984375 C-338.33598267 382.62282471 -338.35165283 381.84721191 -338.36779785 381.0480957 C-338.47618179 375.64441914 -338.55542943 370.24124819 -338.60440063 364.83670044 C-338.62324433 363.01230313 -338.64838601 361.18795931 -338.68002319 359.36373901 C-338.72184676 356.79560702 -338.73729318 354.22858687 -338.74609375 351.66015625 C-338.76354645 350.88524841 -338.78099915 350.11034058 -338.79898071 349.31195068 C-338.78514288 345.83676129 -338.60797775 343.79576105 -336.54370117 340.94458008 C-332.46673083 338.10945839 -328.58986779 338.26604929 -323.70933533 338.23590088 C-323.04649884 338.23040718 -322.38366236 338.22491348 -321.70073992 338.2192533 C-319.48140905 338.20190329 -317.26209678 338.19135366 -315.04272461 338.18066406 C-313.45095986 338.16940606 -311.85919854 338.15765477 -310.2674408 338.14544678 C-306.84075466 338.11974289 -303.41406386 338.09659736 -299.98734856 338.07514191 C-294.57152474 338.04026656 -289.15583879 337.99387793 -283.74012756 337.94476318 C-282.8262982 337.93653101 -281.91246884 337.92829884 -280.97094768 337.91981721 C-279.10251281 337.90297679 -277.23407813 337.88611608 -275.36564362 337.86923552 C-262.75743651 337.7559466 -250.14926425 337.65098547 -237.54077148 337.57519531 C-229.03470994 337.52397665 -220.52898828 337.45526536 -212.02323538 337.36627555 C-207.52111436 337.31989613 -203.01932192 337.28268996 -198.51698112 337.26691437 C-194.28542578 337.25197375 -190.05470573 337.21413306 -185.82349586 337.15848541 C-184.26870183 337.14218057 -182.71379162 337.13443228 -181.15891266 337.13575745 C-179.03973126 337.13632321 -176.92310318 337.10650454 -174.80430603 337.06890869 C-173.61762298 337.06006779 -172.43093992 337.05122688 -171.20829678 337.04211807 C-168.12821291 336.67927724 -168.12821291 336.67927724 -166.47133732 333.99740219 C-165.42054148 331.62475023 -164.47127995 329.30139235 -163.6640625 326.8359375 C-157.5542002 308.81050678 -149.61845609 291.79706564 -138.3203125 276.3984375 C-137.74265137 275.61098145 -137.74265137 275.61098145 -137.15332031 274.80761719 C-131.61246541 267.3070309 -125.74764436 260.16243912 -119.3203125 253.3984375 C-118.84754883 252.89844238 -118.37478516 252.39844727 -117.88769531 251.88330078 C-89.74791677 222.31405745 -52.29387894 202.15244516 -12.12255859 194.79638672 C-10.23153485 194.45565027 -10.23153485 194.45565027 -8.3203125 193.3984375 C-7.24310298 188.93940756 -7.26011756 184.7137768 -7.40625 180.1484375 C-7.45005824 178.61621399 -7.49375213 177.08398722 -7.53735352 175.55175781 C-7.56306427 174.72148071 -7.58877502 173.89120361 -7.61526489 173.0357666 C-8.61863416 139.97775207 -8.91748432 106.89825992 -9.24553776 73.82802677 C-9.28619393 69.73145358 -9.32824177 65.63490783 -9.37426758 61.53839111 C-9.46797162 53.18682899 -9.55064851 44.83548333 -9.59512997 36.48349571 C-9.61363443 33.0190525 -9.63823951 29.55495235 -9.67947388 26.09069824 C-9.72068896 22.3037765 -9.73686346 18.51758398 -9.74609375 14.73046875 C-9.76355652 13.61563614 -9.78101929 12.50080353 -9.79901123 11.35218811 C-9.79613098 10.3398259 -9.79325073 9.32746368 -9.7902832 8.28442383 C-9.79908257 6.9685302 -9.79908257 6.9685302 -9.80805969 5.62605286 C-9.3203125 3.3984375 -9.3203125 3.3984375 -7.44624329 1.61732483 C-4.79453258 0.09698531 -3.04950444 0.011028 0 0 Z M5.6796875 244.3984375 C4.61403564 244.57584473 4.61403564 244.57584473 3.52685547 244.75683594 C-34.51252347 251.40843813 -69.91099687 274.99806001 -92.4453125 306.1484375 C-116.51515808 340.45482968 -126.6240975 382.75103247 -119.72851562 424.27026367 C-112.18914735 465.47291131 -90.40830438 502.58089575 -56.0078125 527.0859375 C-28.40501706 545.39964849 1.05540856 555.89702463 34.4296875 555.7109375 C35.13001099 555.70878235 35.83033447 555.7066272 36.55187988 555.70440674 C47.49650274 555.65051536 58.04036348 555.12690931 68.6796875 552.3984375 C69.46666016 552.19976074 70.25363281 552.00108398 71.06445312 551.79638672 C98.96217136 544.53928348 122.75169029 531.16006544 143.6796875 511.3984375 C144.98679687 510.20541016 144.98679687 510.20541016 146.3203125 508.98828125 C175.49435002 481.3563 189.8840803 440.6106187 191.03344727 401.09448242 C191.42762942 358.01988783 173.57649256 317.74712503 144.125 286.8359375 C115.16673723 257.97019314 74.78525083 242.16722407 34.1171875 242.2109375 C24.50476446 242.23358542 15.15972475 242.79950239 5.6796875 244.3984375 Z " fill="#ffffff" transform="translate(540.3203125,204.6015625)"/>
<path d="M0 0 C49.83 0 99.66 0 151 0 C155.21629189 5.42094671 159.05300525 10.41497732 162.53125 16.21875 C166.51870747 22.72546506 170.68897955 29.08822174 174.96875 35.40625 C175.88624023 36.76097412 175.88624023 36.76097412 176.82226562 38.14306641 C178.71276634 40.93012873 180.60588467 43.71539312 182.5 46.5 C196.741359 67.43673259 196.741359 67.43673259 203.3613739 78.16912842 C207.80221218 85.34895609 212.50410739 92.35021761 217.20825195 99.35925293 C220.04702303 103.58976059 222.87706547 107.82609895 225.70703125 112.0625 C226.29888214 112.9483075 226.89073303 113.83411499 227.5005188 114.74676514 C234.37912903 125.05120208 241.18990142 135.40021434 248 145.75 C255.76034956 157.54196956 263.52817692 169.32786312 271.375 181.0625 C277.9005822 190.82404549 284.36900948 200.62164624 290.8125 210.4375 C291.52317123 211.52005569 291.52317123 211.52005569 292.24819946 212.6244812 C293.22307702 214.10953708 294.19794565 215.59459882 295.17280579 217.07966614 C295.66749863 217.83325912 296.16219147 218.58685211 296.671875 219.36328125 C297.17514816 220.12996628 297.67842133 220.89665131 298.19694519 221.68656921 C304.64322354 231.50524207 311.10073195 241.3165155 317.5625 251.125 C318.17755402 252.05865387 318.79260803 252.99230774 319.42630005 253.95425415 C327.94917051 266.88876571 336.51382577 279.79444848 345.11914062 292.67422485 C351.48028234 302.19686203 357.78637005 311.75288181 364.0402832 321.34643555 C371.1399874 332.23165465 378.28621611 343.08611263 385.4375 353.9375 C386.07132599 354.89931183 386.70515198 355.86112366 387.35818481 356.8520813 C395.40967824 369.06717847 403.49125918 381.26108969 411.62158203 393.42382812 C417.05995554 401.56816705 422.44481262 409.74650317 427.8125 417.9375 C436.42091876 431.07344677 445.04632118 444.1980748 453.6875 457.3125 C454.30789154 458.25416016 454.92828308 459.19582031 455.56747437 460.16601562 C463.93998164 472.87171912 472.33786715 485.55980782 480.8112793 498.19848633 C481.46394775 499.17325928 482.11661621 500.14803223 482.7890625 501.15234375 C483.34287598 501.97726318 483.89668945 502.80218262 484.46728516 503.65209961 C486.04299423 506.06586102 487.52307791 508.52488041 489 511 C489.00173625 509.92123519 489.0034725 508.84247039 489.00526136 507.73101574 C489.08180612 460.21296039 489.15958009 412.69490727 489.2436676 365.17686462 C489.24557512 364.09862249 489.24557512 364.09862249 489.24752118 362.99859769 C489.27516227 347.37843388 489.30302524 331.75827048 489.33111694 316.13810748 C489.34489074 308.47854634 489.35861549 300.81898511 489.37231445 293.15942383 C489.37367854 292.39718481 489.37504262 291.6349458 489.37644804 290.84960863 C489.42067929 266.12067972 489.46166795 241.39174671 489.50098413 216.66280953 C489.54138657 191.26136749 489.58504223 165.85993308 489.63282111 140.45850379 C489.63956017 136.87490283 489.64626184 133.2913018 489.65294075 129.70770073 C489.65425648 129.00236141 489.65557221 128.29702209 489.6569278 127.57030884 C489.67805438 116.19307167 489.69572747 104.81583161 489.71212531 93.43858675 C489.7286635 82.01468559 489.74888245 70.59079667 489.77266841 59.16690785 C489.78545875 52.97149427 489.7965869 46.77608885 489.80341911 40.58066559 C489.80969796 34.91892156 489.8204976 29.2572056 489.8350333 23.59547692 C489.8394934 21.53760229 489.84223367 19.47972314 489.84316199 17.42184389 C489.84465605 14.6438318 489.85217748 11.8659026 489.8613348 9.08790684 C489.86031213 8.27231768 489.85928946 7.45672852 489.85823581 6.61642453 C489.8858542 1.1141458 489.8858542 1.1141458 491 0 C540.83 0 590.66 0 642 0 C642 248.49 642 496.98 642 753 C591.84 753 541.68 753 490 753 C479.91536049 737.87304073 469.83373455 722.75028456 459.8482666 707.55877686 C449.37337321 691.6253191 438.8407449 675.73166809 428.25 659.875 C420.33382224 648.02110504 412.44303131 636.15411461 404.66381836 624.2097168 C398.21945083 614.31845383 391.72859111 604.45804917 385.23239136 594.60076904 C383.97981224 592.7000886 382.72746185 590.79925739 381.47537231 588.89825439 C375.01348866 579.08788731 368.53479801 569.28933417 362.01171875 559.51953125 C354.18089792 547.79080842 346.42841671 536.0109393 338.67724609 524.22949219 C332.14462161 514.30186398 325.59962657 504.38324842 319 494.5 C311.17259901 482.77810214 303.42425308 471.00461077 295.67724609 459.22949219 C289.14462161 449.30186398 282.59962657 439.38324842 276 429.5 C268.17259901 417.77810214 260.42425308 406.00461077 252.67724609 394.22949219 C246.14462161 384.30186398 239.59962657 374.38324842 233 364.5 C225.17259901 352.77810214 217.42425308 341.00461077 209.67724609 329.22949219 C203.16168965 319.32780227 196.63386283 309.43508476 190.05078125 299.578125 C185.1159114 292.18887474 180.20897681 284.78185053 175.32421875 277.359375 C174.69375641 276.40140015 174.06329407 275.44342529 173.41372681 274.4564209 C170.84041186 270.54511747 168.26799045 266.63322814 165.6965332 262.72070312 C163.78178037 259.8079222 161.86559668 256.89608689 159.94921875 253.984375 C159.3639592 253.09296814 158.77869965 252.20156128 158.17570496 251.28314209 C157.64036636 250.47008606 157.10502777 249.65703003 156.5534668 248.81933594 C156.08273239 248.10324158 155.61199799 247.38714722 155.1269989 246.64935303 C154.10244573 245.04081241 154.10244573 245.04081241 153 244 C152.99826375 245.07453287 152.9965275 246.14906573 152.99473864 247.2561602 C152.91819387 294.58781642 152.84041988 341.91947042 152.7563324 389.25111389 C152.75506072 389.96712251 152.75378904 390.68313112 152.75247882 391.42083697 C152.72483773 406.97973437 152.69697476 422.53863138 152.66888306 438.09752798 C152.65510926 445.72704657 152.64138451 453.35656525 152.62768555 460.98608398 C152.62632146 461.74533331 152.62495738 462.50458264 152.62355196 463.28683953 C152.57932073 487.91876481 152.53833206 512.55069419 152.49901587 537.18262777 C152.45861341 562.48443334 152.41495774 587.78623124 152.36717889 613.08802401 C152.36043983 616.65757037 152.35373816 620.22711681 152.34705925 623.79666328 C152.34574352 624.49923631 152.34442779 625.20180933 152.3430722 625.92567244 C152.32194564 637.2582776 152.30427254 648.59088568 152.28787469 659.92349856 C152.27133648 671.30259146 152.25111752 682.68167206 152.22733159 694.06075256 C152.21454128 700.23186294 152.20341311 706.40296514 152.19658089 712.57408524 C152.19030202 718.21362424 152.17950236 723.85313508 152.1649667 729.49265868 C152.16050661 731.54245798 152.15776633 733.59226182 152.15683801 735.64206576 C152.15534394 738.40918635 152.14782248 741.17622371 152.1386652 743.9433279 C152.13968787 744.75570837 152.14071054 745.56808884 152.14176419 746.4050869 C152.1141458 751.8858542 152.1141458 751.8858542 151 753 C101.17 753 51.34 753 0 753 C0 504.51 0 256.02 0 0 Z " fill="#ffffff" transform="translate(1115,218)"/>
<path d="M0 0 C4.03548287 3.90603223 8.05635506 7.82538839 12.05078125 11.7734375 C12.820271 12.52971436 13.58976074 13.28599121 14.38256836 14.06518555 C15.12385986 14.80551025 15.86515137 15.54583496 16.62890625 16.30859375 C17.28793945 16.96351807 17.94697266 17.61844238 18.62597656 18.29321289 C21.57797556 21.57494236 24.15233704 25.17967856 26.80078125 28.7109375 C27.13078125 1.9809375 27.46078125 -24.7490625 27.80078125 -52.2890625 C78.29078125 -52.2890625 128.78078125 -52.2890625 180.80078125 -52.2890625 C180.80078125 144.7209375 180.80078125 341.7309375 180.80078125 544.7109375 C130.31078125 544.7109375 79.82078125 544.7109375 27.80078125 544.7109375 C27.30578125 503.6259375 27.30578125 503.6259375 26.80078125 461.7109375 C24.16078125 465.0109375 21.52078125 468.3109375 18.80078125 471.7109375 C15.2364889 475.80886684 11.53106411 479.76500949 7.80078125 483.7109375 C7.11290527 484.44981201 7.11290527 484.44981201 6.41113281 485.20361328 C-33.91595717 528.33396251 -94.76402397 551.9400521 -153.015625 554.3449707 C-154.25183594 554.38323975 -155.48804687 554.42150879 -156.76171875 554.4609375 C-157.4175293 554.48151215 -158.07333984 554.50208679 -158.74902344 554.52328491 C-227.24268799 556.52409655 -293.89027031 533.87929422 -344.19921875 486.7109375 C-354.87823477 476.56792552 -365.29603608 466.3324507 -373.96923828 454.39404297 C-375.26016466 452.62753911 -376.58383497 450.88940901 -377.9140625 449.15234375 C-396.08421698 425.2266045 -410.28380862 398.02918795 -420.19921875 369.7109375 C-420.51439453 368.81632812 -420.82957031 367.92171875 -421.15429688 367 C-431.13416023 338.24799283 -436.8254917 308.01961584 -439.19921875 277.7109375 C-439.25706543 277.02032227 -439.31491211 276.32970703 -439.37451172 275.61816406 C-446.32050576 190.1638872 -426.74765244 101.22053868 -372.19921875 33.7109375 C-371.71517578 33.10975098 -371.23113281 32.50856445 -370.73242188 31.88916016 C-359.33616048 17.86269166 -346.55268577 4.7145555 -332.19921875 -6.2890625 C-331.23371094 -7.07152344 -330.26820313 -7.85398437 -329.2734375 -8.66015625 C-321.11494966 -15.22149344 -312.42238896 -20.69889903 -303.39990234 -25.99267578 C-301.39044914 -27.1764118 -299.39753226 -28.38371666 -297.40625 -29.59765625 C-266.6795743 -47.98242343 -230.6915964 -57.96406852 -195.19921875 -61.2890625 C-194.05710937 -61.39992188 -192.915 -61.51078125 -191.73828125 -61.625 C-122.22664836 -67.30255059 -51.74060087 -48.07675867 0 0 Z M-240.62890625 120.22216797 C-277.23014762 160.27373354 -286.45714891 211.09798881 -284.19921875 263.7109375 C-283.72548681 271.15311338 -282.70053914 278.41051302 -281.19921875 285.7109375 C-281.02229492 286.59330078 -280.84537109 287.47566406 -280.66308594 288.38476562 C-272.15681203 329.72613828 -249.22445367 369.1810706 -213.9296875 393.29296875 C-178.58955608 416.521791 -137.81847679 425.1165919 -96.19921875 416.7109375 C-56.69162414 408.39486354 -21.80868229 384.10715474 0.23608398 350.4296875 C29.00869563 305.32325373 33.8593144 248.23617357 22.96337891 196.69946289 C13.6910519 155.51515207 -10.80420189 118.56249275 -46.47485352 95.70800781 C-108.48671327 57.35357245 -190.45507104 67.18664202 -240.62890625 120.22216797 Z " fill="#ffffff" transform="translate(3400.19921875,426.2890625)"/>
<path d="M0 0 C1.39798828 1.10988281 1.39798828 1.10988281 2.82421875 2.2421875 C18.12093658 14.57343284 33.27045928 28.15483096 45 44 C45.7115625 44.9178125 46.423125 45.835625 47.15625 46.78125 C98.20797556 113.2184271 114.32676084 199.91405444 105 282 C103.31006544 294.68993456 103.31006544 294.68993456 102 296 C99.70140234 296.0982045 97.39970776 296.12371066 95.09901333 296.12304783 C94.36510531 296.12420167 93.63119728 296.12535552 92.87504962 296.12654433 C90.38448672 296.12921797 87.89398683 296.12468274 85.40342712 296.12025452 C83.61240056 296.12069007 81.82137405 296.12156467 80.03034788 296.12284368 C75.08431614 296.12509184 70.13830584 296.121063 65.19227684 296.11606562 C59.86777296 296.11176588 54.54327038 296.1132072 49.21876526 296.1139679 C39.98558704 296.11449344 30.75241587 296.11134352 21.51923943 296.10573006 C8.16945002 296.09761909 -5.18033597 296.09500025 -18.53012758 296.09374207 C-40.18683503 296.09155091 -61.84353873 296.0848891 -83.50024414 296.07543945 C-104.54353822 296.06626698 -125.58683128 296.05918534 -146.63012695 296.05493164 C-147.92622031 296.05466892 -149.22231367 296.05440619 -150.55768258 296.05413551 C-157.05949886 296.05283052 -163.56131516 296.0515668 -170.06313145 296.05032361 C-224.04209023 296.03994901 -278.02104493 296.02232897 -332 296 C-331.79778084 296.99872383 -331.79778084 296.99872383 -331.59147644 298.0176239 C-331.41328873 298.90214737 -331.23510101 299.78667084 -331.05151367 300.69799805 C-330.8754509 301.57006393 -330.69938812 302.44212982 -330.51799011 303.34062195 C-330.0325708 305.83278044 -329.59261924 308.32760451 -329.17578125 310.83203125 C-324.01454309 341.1516567 -312.1701646 367.50670011 -291 390 C-290.4225 390.65355469 -289.845 391.30710937 -289.25 391.98046875 C-268.19456171 414.77486065 -234.49031976 427.85238358 -203.97705078 429.1875 C-166.7042725 430.59317441 -131.84066918 425.26577887 -103 400 C-102.14148437 399.32324219 -101.28296875 398.64648438 -100.3984375 397.94921875 C-88.97927231 388.66882228 -81.04802747 374.4466031 -73.71484375 361.88671875 C-72 359 -72 359 -71 358 C-68.91172679 357.90314682 -66.82011638 357.87813118 -64.729599 357.87974548 C-63.73601414 357.87846385 -63.73601414 357.87846385 -62.72235686 357.87715632 C-60.4866713 357.87549967 -58.25105958 357.88102586 -56.01538086 357.88647461 C-54.41919456 357.88675647 -52.82300813 357.88659877 -51.2268219 357.8860321 C-46.87990105 357.88574408 -42.53300756 357.89164165 -38.18609309 357.89860606 C-33.64836053 357.90483872 -29.11062741 357.90544333 -24.57289124 357.90663147 C-15.9739216 357.90974505 -7.37496461 357.91795878 1.22399944 357.92798096 C11.01101728 357.93914128 20.79803571 357.94465234 30.58505833 357.94967639 C50.72337929 357.96014138 70.86168885 357.97774132 91 358 C91.97479137 361.43139137 91.90067513 363.12166157 90.6640625 366.5 C90.34646973 367.3768042 90.02887695 368.2536084 89.70166016 369.15698242 C89.3463623 370.09517822 88.99106445 371.03337402 88.625 372 C88.26067871 372.97751221 87.89635742 373.95502441 87.52099609 374.9621582 C73.13263365 412.95614041 52.38007269 445.91868723 24 475 C22.99852918 476.04150444 21.99721567 477.08316018 20.99609375 478.125 C15.0157663 484.24994419 8.703384 489.68804949 2 495 C0.85505053 495.94453312 -0.28809137 496.8912604 -1.4296875 497.83984375 C-51.47064217 539.15233457 -115.9371083 556.89546738 -180 558 C-181.07765625 558.02835938 -182.1553125 558.05671875 -183.265625 558.0859375 C-186.18307338 558.12761533 -189.08314451 558.07967658 -192 558 C-192.76086914 557.98211426 -193.52173828 557.96422852 -194.30566406 557.94580078 C-266.60784227 556.09155173 -335.42529758 533.21976649 -390 485 C-390.79784912 484.29689697 -390.79784912 484.29689697 -391.61181641 483.57958984 C-415.71008381 462.20151114 -434.95684246 436.44485576 -450 408 C-450.3398291 407.35885254 -450.6796582 406.71770508 -451.02978516 406.05712891 C-467.07319718 375.51249799 -476.88406369 342.78281223 -482.25 308.75 C-482.40114258 307.79488525 -482.55228516 306.83977051 -482.70800781 305.85571289 C-485.44390829 287.30192281 -486.37964296 268.79851199 -486.3125 250.0625 C-486.31067719 248.99761353 -486.30885437 247.93272705 -486.30697632 246.83557129 C-486.25600655 229.05559081 -485.49896722 211.62558965 -483 194 C-482.83371094 192.80149414 -482.66742187 191.60298828 -482.49609375 190.36816406 C-475.07629992 138.69067406 -455.93506006 87.88684683 -423 47 C-422.05640625 45.76830078 -422.05640625 45.76830078 -421.09375 44.51171875 C-414.92839998 36.5307254 -407.95658536 29.28641417 -401 22 C-400.24332031 21.20078125 -399.48664063 20.4015625 -398.70703125 19.578125 C-393.52695099 14.23783608 -387.80719353 9.63757568 -382 5 C-381.20851563 4.34128906 -380.41703125 3.68257813 -379.6015625 3.00390625 C-294.83033811 -66.98163946 -164.92083152 -75.92445688 0 0 Z M-288 104 C-288.80050781 104.72445312 -289.60101562 105.44890625 -290.42578125 106.1953125 C-302.6314416 117.68070262 -311.12817197 131.85521042 -318 147 C-318.45761719 147.95519531 -318.91523437 148.91039062 -319.38671875 149.89453125 C-322.34390641 156.41526996 -324.32229395 163.18276195 -326.25 170.0625 C-326.50861816 170.97273926 -326.76723633 171.88297852 -327.03369141 172.82080078 C-327.27522949 173.71653809 -327.51676758 174.61227539 -327.765625 175.53515625 C-327.97993164 176.322854 -328.19423828 177.11055176 -328.41503906 177.92211914 C-329.29673971 182.56135119 -329.57246542 187.29711958 -330 192 C-237.93 192 -145.86 192 -51 192 C-51 164.0411329 -59.33063145 137.20695262 -78 116 C-78.67417969 115.19433594 -79.34835937 114.38867188 -80.04296875 113.55859375 C-104.64525769 84.92314268 -141.38473086 69.97813381 -178.4453125 67.15673828 C-219.49427658 64.63825253 -257.63048795 75.3203654 -288 104 Z " fill="#ffffff" transform="translate(2352,423)"/>
<path d="M0 0 C1.82462744 1.82462744 1.12619435 4.69977714 1.12698364 7.14978027 C1.12854363 7.79921396 1.13010362 8.44864764 1.13171089 9.11776114 C1.13572255 11.30964981 1.13253062 13.5014701 1.12939453 15.69335938 C1.1307485 17.25836732 1.13252841 18.82337494 1.13470459 20.38838196 C1.13927946 24.65065854 1.13748914 28.91291104 1.1343255 33.17518806 C1.13180218 37.62570386 1.13413936 42.07621753 1.13571167 46.5267334 C1.13753345 54.00203829 1.13512684 61.47733332 1.13037109 68.95263672 C1.12492846 77.60782903 1.12669111 86.26299779 1.1321975 94.91818953 C1.1367284 102.33557573 1.13737929 109.75295483 1.13475883 117.17034197 C1.13319593 121.60645973 1.13300265 126.04256641 1.13629532 130.47868347 C1.1391737 134.64825232 1.13719896 138.81779065 1.13140106 142.98735619 C1.13007328 144.52209103 1.13046788 146.05682842 1.13266373 147.59156227 C1.13537456 149.67781667 1.13199497 151.76397175 1.12698364 153.85021973 C1.12660662 155.02051979 1.12622959 156.19081985 1.12584114 157.39658356 C1 160 1 160 0 161 C-1.81185682 161.11297312 -3.62806129 161.15682266 -5.44335938 161.17358398 C-7.19283875 161.19381874 -7.19283875 161.19381874 -8.97766113 161.21446228 C-10.25347046 161.22490067 -11.52927979 161.23533905 -12.84375 161.24609375 C-14.85014856 161.27061554 -16.85654704 161.29514858 -18.86293793 161.32029057 C-23.8120228 161.38080095 -28.7612086 161.43099234 -33.71044922 161.47680664 C-60.5734083 161.64819551 -60.5734083 161.64819551 -87.0625 165.8125 C-87.80161621 165.98426758 -88.54073242 166.15603516 -89.30224609 166.33300781 C-116.62941676 172.85419817 -143.59300462 185.29989629 -159 210 C-167.53373946 224.17316868 -172.91439487 238.82176157 -176.25 255 C-176.40122314 255.73323486 -176.55244629 256.46646973 -176.70825195 257.22192383 C-180.16544022 275.43706989 -180.30460303 293.62812482 -180.30201519 312.09896076 C-180.30367217 316.00673211 -180.31683502 319.91446805 -180.32855225 323.82221985 C-180.34730275 330.57285868 -180.35909047 337.32347972 -180.36609077 344.07414055 C-180.37631277 353.83740327 -180.39840808 363.60061225 -180.42347669 373.36384685 C-180.46394696 389.21317499 -180.49646447 405.06250829 -180.52319336 420.91186523 C-180.52479066 421.857896 -180.52638796 422.80392677 -180.52803367 423.77862514 C-180.52963257 424.72589754 -180.53123147 425.67316994 -180.53287882 426.64914757 C-180.55562246 440.11400307 -180.58025746 453.57885334 -180.60717773 467.04370117 C-180.60907388 467.99311452 -180.61097003 468.94252788 -180.61292363 469.92071133 C-180.6446668 485.73356716 -180.68040419 501.54641249 -180.71821922 517.3592549 C-180.74126682 527.10455124 -180.76021801 536.84984042 -180.77388596 546.59515453 C-180.7833926 553.25846632 -180.79622121 559.92176602 -180.81169481 566.58506661 C-180.82048138 570.43154635 -180.82757113 574.2780111 -180.83033562 578.12450027 C-180.83334504 582.28699738 -180.84391761 586.44944046 -180.85523987 590.61192322 C-180.85485374 591.83600999 -180.8544676 593.06009677 -180.85406977 594.32127708 C-180.85831082 595.43083623 -180.86255186 596.54039538 -180.86692142 597.68357754 C-180.86849532 598.64476511 -180.87006922 599.60595269 -180.87169081 600.59626716 C-181 603 -181 603 -182 606 C-231.83 606 -281.66 606 -333 606 C-333 408.99 -333 211.98 -333 9 C-283.17 9 -233.34 9 -182 9 C-180.42070193 12.15859615 -180.8200366 15.55948074 -180.79467773 19.02978516 C-180.78477814 19.85913071 -180.77487854 20.68847626 -180.76467896 21.54295349 C-180.73302336 24.29162719 -180.70829051 27.04031818 -180.68359375 29.7890625 C-180.66302773 31.69192969 -180.64203135 33.59479227 -180.62062073 35.49765015 C-180.56536373 40.51176225 -180.51597047 45.52591582 -180.46777344 50.5401001 C-180.41758488 55.65437522 -180.36188502 60.76858994 -180.30664062 65.8828125 C-180.19901469 75.92182343 -180.09757958 85.96088675 -180 96 C-179.38557037 95.10602005 -178.77114075 94.2120401 -178.13809204 93.29096985 C-177.32211207 92.1070988 -176.50605794 90.92327886 -175.68994141 89.73950195 C-175.28614761 89.15157112 -174.88235382 88.56364029 -174.46632385 87.95789337 C-171.61848505 83.83143122 -168.6584514 79.97190093 -165.375 76.1875 C-164.90610352 75.64601318 -164.43720703 75.10452637 -163.95410156 74.54663086 C-162.63859362 73.02889421 -161.31944418 71.51431594 -160 70 C-159.43023438 69.30648437 -158.86046875 68.61296875 -158.2734375 67.8984375 C-125.44664992 28.3379499 -74.04092153 5.87638347 -23.7722168 1.02099609 C-7.17930425 -0.46685696 -7.17930425 -0.46685696 0 0 Z " fill="#ffffff" transform="translate(2899,365)"/>
<path d="M0 0 C1.9210456 -0.03743014 3.84210648 -0.07408696 5.76318359 -0.10986328 C6.6347258 -0.14173233 7.50626801 -0.17360138 8.40422058 -0.20643616 C9.608283 -0.22232033 9.608283 -0.22232033 10.83666992 -0.23852539 C11.53440018 -0.25668808 12.23213043 -0.27485077 12.95100403 -0.29356384 C16.13318674 0.44735401 17.08417896 1.44589102 18.93115234 4.16748047 C19.56655427 7.64744898 19.55368917 11.10271984 19.56884766 14.63305664 C19.59898453 16.23157219 19.59898453 16.23157219 19.62973022 17.86238098 C19.69162226 21.39504871 19.72555884 24.92740922 19.75927734 28.46044922 C19.79672636 30.92510027 19.8358751 33.38972603 19.87664795 35.85432434 C19.97951742 42.35945398 20.05856994 48.86466877 20.13293457 55.37017822 C20.2123401 61.93239164 20.31519085 68.49423186 20.41552734 75.05615234 C20.59052393 86.81956647 20.76378628 98.58298632 20.8692627 110.34725952 C20.90245337 114.02755547 20.96301446 117.70514634 21.05456543 121.38442993 C21.08220421 122.91668536 21.10975825 124.44894233 21.13720703 125.98120117 C21.16933289 127.26622025 21.20145874 128.55123932 21.23455811 129.87519836 C20.90250963 133.478285 20.09574925 135.3025438 17.93115234 138.16748047 C15.99902344 139.40332031 15.99902344 139.40332031 13.82958984 140.25341797 C13.03133789 140.57536133 12.23308594 140.89730469 11.41064453 141.22900391 C10.59241211 141.53870117 9.77417969 141.84839844 8.93115234 142.16748047 C8.1722168 142.46428711 7.41328125 142.76109375 6.63134766 143.06689453 C5.08785368 143.66754511 3.54238065 144.26313122 1.99511719 144.85400391 C-16.06765428 151.80428354 -32.277867 161.02366017 -48.06884766 172.16748047 C-48.64747559 172.57353516 -49.22610352 172.97958984 -49.82226562 173.39794922 C-57.80961116 179.04912276 -65.02364148 185.40825025 -72.06884766 192.16748047 C-72.60155273 192.6729541 -73.13425781 193.17842773 -73.68310547 193.69921875 C-92.71561153 211.83268486 -106.67349596 233.38841752 -118.89697266 256.51513672 C-119.38230469 257.42231445 -119.86763672 258.32949219 -120.36767578 259.26416016 C-121.31575594 261.03846092 -122.25249336 262.81888211 -123.17626953 264.60595703 C-123.61003906 265.41645508 -124.04380859 266.22695313 -124.49072266 267.06201172 C-124.8680957 267.78235596 -125.24546875 268.5027002 -125.63427734 269.24487305 C-127.51900463 271.77077969 -129.23586297 272.76907488 -132.06884766 274.16748047 C-135.34004211 274.56620789 -135.34004211 274.56620789 -139.10522461 274.59985352 C-139.79582474 274.61004517 -140.48642487 274.62023682 -141.19795227 274.6307373 C-143.48442755 274.66092498 -145.77047994 274.67016746 -148.05712891 274.67919922 C-149.67727469 274.69609828 -151.29740778 274.71425526 -152.91752625 274.7335968 C-157.20419175 274.78118005 -161.4908066 274.81085847 -165.77764893 274.83703613 C-170.01350428 274.86622907 -174.24915417 274.91328962 -178.48486328 274.95849609 C-185.93578496 275.03548116 -193.38657475 275.08623269 -200.83780098 275.12208366 C-205.63417004 275.14706697 -210.42965545 275.19380649 -215.22562504 275.26035213 C-218.2139904 275.29982816 -221.20239207 275.32745618 -224.19090843 275.35264015 C-225.58190501 275.36706965 -226.97285871 275.38669087 -228.36370277 275.41184044 C-230.26676892 275.44556011 -232.17016202 275.45901259 -234.07348633 275.47143555 C-235.1405632 275.48515701 -236.20764008 275.49887848 -237.30705261 275.51301575 C-240.47764806 275.1163344 -241.81193108 274.39860628 -244.06884766 272.16748047 C-245.24042836 268.65273837 -245.25788092 265.44814834 -245.30299377 261.78822327 C-245.31609886 261.03050249 -245.32920394 260.27278171 -245.34270614 259.4920997 C-245.38558857 256.94522445 -245.42165196 254.39829795 -245.45776367 251.85131836 C-245.48706144 250.0279984 -245.51677527 248.20468508 -245.546875 246.38137817 C-245.62756385 241.42022515 -245.70233636 236.4589984 -245.77602887 231.49773717 C-245.85414654 226.30226735 -245.93749845 221.10688149 -246.02024841 215.91148376 C-246.15864319 207.17614318 -246.29354572 198.44075448 -246.42602539 189.70532227 C-246.61242242 177.41532158 -246.80533151 165.12542941 -246.99944413 152.83554852 C-247.13397966 144.30215876 -247.26694871 135.76874446 -247.39962268 127.23532557 C-247.43170393 125.1722675 -247.463827 123.10921008 -247.49599195 121.04615331 C-247.58781149 115.15310716 -247.6786406 109.26004738 -247.76793671 103.36696243 C-247.79503576 101.58689461 -247.82243837 99.80683138 -247.85017967 98.02677345 C-248.72382826 41.86499767 -248.72382826 41.86499767 -226.85400391 18.74169922 C-213.26916014 6.1857216 -196.28644707 2.05365006 -178.25830078 1.97802734 C-177.18689944 1.96971421 -176.1154981 1.96140108 -175.01163006 1.95283604 C-171.45780212 1.926276 -167.90396756 1.90632165 -164.35009766 1.88623047 C-161.83913334 1.86843159 -159.32817242 1.85014718 -156.81721497 1.83140564 C-151.49254669 1.7923632 -146.16787106 1.7558424 -140.84317017 1.72164917 C-127.78857535 1.63755548 -114.73409438 1.53782003 -101.67961907 1.43706012 C-99.64129937 1.42137312 -97.60297842 1.40585776 -95.56465721 1.39036751 C-70.66625371 1.20036215 -45.77339469 0.87859926 -20.87875366 0.40896606 C-16.89359394 0.33679361 -12.90828929 0.27768917 -8.9229126 0.21893311 C-5.94787693 0.16529963 -2.97434954 0.08297426 0 0 Z " fill="#ffffff" transform="translate(446.06884765625,205.83251953125)"/>
</svg>
