<?xml version="1.0" encoding="UTF-8"?>
<svg version="1.1" xmlns="http://www.w3.org/2000/svg" width="4096" height="4096">
<path d="M0 0 C0.9962439 -0.00637985 1.99248779 -0.0127597 3.0189209 -0.01933289 C4.09484497 -0.02044571 5.17076904 -0.02155853 6.27929688 -0.02270508 C7.40259399 -0.02603348 8.52589111 -0.02936188 9.68322754 -0.03279114 C12.07055249 -0.03785848 14.45788453 -0.04019952 16.84521484 -0.04003906 C20.42883747 -0.0421947 24.01213626 -0.06026572 27.59570312 -0.0793457 C39.62586529 -0.108746 51.40945874 0.26683312 63.36035156 1.64404297 C68.01201027 2.17418358 72.65900435 2.47391594 77.33398438 2.70776367 C78.08516541 2.74580612 78.83634644 2.78384857 79.61029053 2.82304382 C82.62646591 2.97163584 85.64298438 3.11190186 88.65966797 3.24975586 C97.36942521 3.65503378 105.85596183 4.33413534 114.48291016 5.67260742 C121.72616188 6.64655765 129.04578183 6.88551455 136.34082031 7.24975586 C143.56270332 7.61811583 150.58808294 8.08541682 157.65966797 9.67700195 C161.95775342 10.53769603 166.3201142 10.7604756 170.68554688 11.08276367 C178.49644856 11.71684207 185.90272966 12.80418655 193.55664062 14.49291992 C197.08278429 15.16132627 200.47885349 15.45090822 204.06054688 15.64526367 C210.09532592 15.97863929 215.72571953 17.02912081 221.60742188 18.38745117 C224.85394266 19.11305605 228.08803528 19.6877744 231.37304688 20.20776367 C234.64627111 20.72595221 237.8076014 21.31496412 240.99804688 22.20776367 C244.25534553 23.08265794 247.3835681 23.36485702 250.74804688 23.58276367 C255.97587056 23.95147668 260.77377031 24.93245668 265.81835938 26.32885742 C270.17788763 27.44819576 274.58007216 28.29058369 278.99804688 29.14526367 C307.98736464 34.77053694 307.98736464 34.77053694 318.13476562 38.20776367 C320.76401013 39.068635 323.20789789 39.59797362 325.93554688 40.02026367 C334.14137085 41.43661137 342.29424134 43.55231848 350.18164062 46.22338867 C352.58167899 47.00897682 354.76422967 47.50889211 357.24804688 47.89526367 C362.33849605 48.85165109 367.11269932 50.46332406 371.99804688 52.14526367 C377.52157963 54.04662275 382.85628031 55.6729619 388.62695312 56.65307617 C394.43989307 57.85971609 400.13255804 59.96485335 405.61523438 62.22338867 C408.18420308 63.29673778 408.18420308 63.29673778 411.81054688 63.89526367 C417.10655789 65.00228938 422.01736843 66.95847008 427.05078125 68.89770508 C431.54584436 70.62292296 436.04282416 72.12180742 440.67382812 73.44604492 C444.0820621 74.47137918 447.39366601 75.7329582 450.72851562 76.97338867 C453.30588218 77.89717597 455.8852555 78.77689912 458.48632812 79.62963867 C459.28103516 79.890271 460.07574219 80.15090332 460.89453125 80.41943359 C462.47137764 80.93394825 464.04945706 81.44470359 465.62890625 81.95117188 C469.97285388 83.37017576 473.91803963 85.0637403 477.99804688 87.14526367 C480.23575377 87.99103203 482.48665459 88.80253217 484.74804688 89.58276367 C491.83932119 92.07729336 498.80821183 94.71969202 505.67773438 97.77416992 C507.03441748 98.37723191 508.39119078 98.98009101 509.74804688 99.58276367 C510.43044434 99.88593506 511.1128418 100.18910645 511.81591797 100.50146484 C517.44840261 102.97272577 523.16044478 105.02025631 528.97070312 107.03979492 C532.04637969 108.16291294 534.87638061 109.45899608 537.76367188 110.98901367 C540.86105806 112.59185687 544.0228385 114.05217452 547.18554688 115.52026367 C547.83281738 115.82085693 548.48008789 116.1214502 549.14697266 116.43115234 C550.45879577 117.03987602 551.77080751 117.64819335 553.08300781 118.25610352 C554.89264699 119.09632609 556.69934854 119.94286724 558.50585938 120.78979492 C563.23233789 122.99660227 567.93621064 125.15989201 572.81054688 127.02026367 C579.37896887 129.58820894 585.59701202 132.87495175 591.875 136.07202148 C593.98719218 137.13977641 596.10775234 138.18852107 598.23242188 139.23120117 C604.82960371 142.47491862 611.23909305 145.80188782 617.49414062 149.67651367 C620.32888567 151.33932824 623.22997274 152.77048805 626.18554688 154.20776367 C635.79952023 158.93594729 645.050103 164.31250875 654.34716797 169.62963867 C656.64116105 170.94121622 658.937751 172.24799401 661.23632812 173.55151367 C667.88098711 177.32361384 674.47123232 181.17280299 680.99804688 185.14526367 C681.66916504 185.55180176 682.3402832 185.95833984 683.03173828 186.37719727 C699.71092142 196.4824185 699.71092142 196.4824185 706.17382812 200.92651367 C708.40182893 202.41502813 710.70007312 203.76714841 712.99804688 205.14526367 C715.21116343 206.55510089 717.41953674 207.97060927 719.62304688 209.39526367 C723.9594059 212.19579335 728.30978462 214.96897722 732.68554688 217.70776367 C737.36609406 220.67507982 741.81226988 223.89935797 746.26757812 227.19213867 C748.8520921 229.04086112 751.48060981 230.72944294 754.18554688 232.39526367 C761.07349112 236.71001284 767.46934651 241.65451868 773.93066406 246.57348633 C777.21366776 249.06946859 780.51168902 251.54529557 783.81054688 254.02026367 C784.46023438 254.50897949 785.10992188 254.99769531 785.77929688 255.5012207 C789.42363097 258.23713008 793.08626696 260.9451032 796.77148438 263.62573242 C805.12223437 269.70663374 813.28504143 275.8656875 821.09179688 282.63354492 C823.85572311 285.02226074 826.66196579 287.34298521 829.49804688 289.64526367 C838.6592676 297.11538697 847.61919026 304.74497534 856.31835938 312.75073242 C858.97704393 315.12649573 861.71076199 317.36004216 864.49804688 319.58276367 C869.40711701 323.53943219 873.82563356 327.84382157 878.19726562 332.37182617 C880.25678816 334.41124179 882.29731471 336.27906089 884.49707031 338.15087891 C889.83742133 342.80546734 894.81343508 347.8160732 899.81445312 352.82885742 C900.83985612 353.85358476 901.86540734 354.87816378 902.89109802 355.90260315 C905.02822751 358.03826797 907.16356296 360.17570575 909.29760742 362.31445312 C912.01280563 365.03534783 914.73247021 367.75172677 917.45350742 370.46678066 C919.56846763 372.57810181 921.68100895 374.69183042 923.79286003 376.80626106 C924.7939135 377.80797458 925.79569072 378.80896544 926.7982502 379.80917168 C931.88010374 384.88170791 936.86806775 389.97309926 941.51280212 395.45204163 C943.0567625 397.21220118 944.68479641 398.83642699 946.37304688 400.45776367 C950.1145194 404.13257299 953.32689854 408.17280089 956.61132812 412.25463867 C958.99175169 415.13763939 961.46484469 417.896052 963.99804688 420.64526367 C968.05788333 425.06166511 971.89128509 429.60689889 975.65820312 434.27416992 C978.18538231 437.3751327 980.77427357 440.41694748 983.37304688 443.45776367 C987.71471792 448.55308614 991.88980681 453.75996863 996.00219727 459.04150391 C998.88754128 462.74471623 1001.82357212 466.39786883 1004.81054688 470.02026367 C1008.33593117 474.31041387 1011.7183914 478.66555245 1014.99804688 483.14526367 C1015.84166894 484.29249318 1016.68543238 485.43961873 1017.52929688 486.58666992 C1022.29723762 493.07349992 1027.05337234 499.56915514 1031.77929688 506.08666992 C1033.5251744 508.49339897 1035.27613815 510.8961902 1037.02929688 513.29760742 C1043.49522431 522.17593726 1049.77202463 531.13972976 1055.79638672 540.32299805 C1057.01575803 542.17212187 1058.24867125 544.01146056 1059.48632812 545.84838867 C1066.98912907 556.99178307 1074.42548835 568.22028509 1080.81445312 580.04760742 C1082.1619706 582.43578195 1083.63046552 584.71993241 1085.12304688 587.02026367 C1093.28639992 599.73252619 1100.52986938 613.0102078 1107.71850586 626.28955078 C1110.49290139 631.41001252 1113.32112805 636.48550507 1116.24804688 641.52026367 C1124.16664398 655.29244385 1130.7390451 669.80130806 1137.56152344 684.13549805 C1138.98910975 687.12653884 1140.42565493 690.11310379 1141.86523438 693.09838867 C1147.15556356 704.08067128 1152.28294337 715.1114645 1157.17529297 726.27661133 C1158.32505763 728.88797594 1159.50265539 731.48626192 1160.68554688 734.08276367 C1161.0696875 734.92838867 1161.45382813 735.77401367 1161.84960938 736.64526367 C1162.64621805 738.3793778 1163.45433732 740.10823246 1164.27148438 741.83276367 C1166.93169103 747.5078712 1169.06588626 753.1748682 1170.97851562 759.14135742 C1171.96492544 762.047676 1173.09425601 764.82838156 1174.31054688 767.64526367 C1180.8802791 783.10817001 1185.76890583 799.32570812 1191.04199219 815.26293945 C1192.04112529 818.27513696 1193.0489211 821.28436655 1194.05664062 824.29370117 C1195.71627201 829.26977626 1197.31247267 834.26239365 1198.87304688 839.27026367 C1200.61695114 844.8471881 1202.41175571 850.39967733 1204.3034668 855.92822266 C1206.91731584 863.58264483 1209.17314135 871.26101533 1211.16967773 879.09912109 C1212.52909797 884.42776348 1214.02856198 889.69506605 1215.62304688 894.95776367 C1217.45227462 901.04264622 1218.92347203 907.12080036 1220.18554688 913.35229492 C1221.17701373 917.98072913 1222.33190428 922.55829323 1223.49804688 927.14526367 C1226.60474925 939.44757665 1229.14976468 951.81513969 1231.56054688 964.27026367 C1231.77066406 965.3551709 1231.98078125 966.44007813 1232.19726562 967.55786133 C1233.2078229 972.83050785 1234.16906087 978.10434344 1235.03320312 983.40307617 C1235.70888025 987.52865341 1236.49664817 991.60395492 1237.39306641 995.6862793 C1239.83880777 1006.94216325 1241.26359739 1018.29785054 1242.60302734 1029.72631836 C1243.28615435 1035.52537132 1243.98503099 1041.29533943 1244.99414062 1047.04760742 C1246.31813316 1054.72856022 1247.13433404 1062.45866717 1247.93554688 1070.20776367 C1248.02075592 1071.02265259 1248.10596497 1071.8375415 1248.1937561 1072.67712402 C1250.02570876 1090.42383271 1251.08181827 1108.20854489 1252.04663086 1126.02050781 C1252.10393372 1127.07651688 1252.16123657 1128.13252594 1252.22027588 1129.22053528 C1252.32578236 1131.18670437 1252.42905042 1133.15299559 1252.52947998 1135.11943054 C1252.7624158 1139.53689197 1253.0634007 1143.92889684 1253.50930786 1148.33027649 C1254.00601494 1153.73152032 1254.14607438 1159.07523966 1254.14331055 1164.49658203 C1254.14666916 1165.46758347 1254.15002777 1166.4385849 1254.15348816 1167.43901062 C1254.16291384 1170.62105628 1254.164938 1173.8030487 1254.16601562 1176.98510742 C1254.16923741 1179.23401408 1254.17260214 1181.48292054 1254.17610168 1183.73182678 C1254.18207459 1188.44475793 1254.18394382 1193.15767081 1254.18334961 1197.87060547 C1254.18326879 1202.64831362 1254.19014047 1207.425925 1254.20385742 1212.20361328 C1254.36755803 1270.02424539 1254.36755803 1270.02424539 1250.99804688 1293.14526367 C1250.8325494 1295.06143937 1250.6890755 1296.97965271 1250.56835938 1298.89916992 C1250.49689697 1299.98633301 1250.42543457 1301.07349609 1250.35180664 1302.19360352 C1250.27631592 1303.35327637 1250.2008252 1304.51294922 1250.12304688 1305.70776367 C1249.40235141 1316.16027099 1248.56317622 1326.59121023 1247.56054688 1337.02026367 C1247.45049316 1338.22368408 1247.34043945 1339.42710449 1247.22705078 1340.66699219 C1246.50978683 1347.90515586 1245.26889146 1354.85491439 1243.66918945 1361.94799805 C1242.79502137 1366.11245976 1242.3746962 1370.2209056 1242.06054688 1374.45776367 C1241.35502237 1382.51329622 1240.27325239 1390.47297937 1238.99804688 1398.45776367 C1238.83183838 1399.51326416 1238.66562988 1400.56876465 1238.49438477 1401.65625 C1237.62931251 1406.95433885 1236.49163253 1411.98450022 1234.99804688 1417.14526367 C1234.45715096 1420.07111514 1234.0431062 1423.01246751 1233.62304688 1425.95776367 C1232.30588053 1434.71414912 1230.51688671 1443.29496007 1228.50976562 1451.91577148 C1227.99869652 1454.14243325 1227.51017838 1456.37283889 1227.02929688 1458.60620117 C1225.20227377 1467.07190135 1223.17428308 1475.45377054 1220.92626953 1483.81762695 C1219.31592162 1489.83951621 1217.85420039 1495.88810917 1216.43554688 1501.95776367 C1214.52222443 1510.09674301 1212.40348211 1518.13576786 1209.99804688 1526.14526367 C1209.54089735 1527.67778048 1209.08387476 1529.21033515 1208.62695312 1530.74291992 C1207.61404336 1534.13386404 1206.59497378 1537.52288775 1205.57226562 1540.91088867 C1204.520848 1544.39692801 1203.48252192 1547.8864604 1202.45507812 1551.37963867 C1199.90555613 1560.02222444 1197.23928992 1568.55872111 1194.13476562 1577.02026367 C1193.09441099 1579.88034515 1192.12687883 1582.75138727 1191.18554688 1585.64526367 C1189.23248006 1591.56026603 1187.12251324 1597.41518172 1184.99804688 1603.27026367 C1184.66571045 1604.1887207 1184.33337402 1605.10717773 1183.9909668 1606.0534668 C1182.05827599 1611.35684261 1180.03165021 1616.61123994 1177.91796875 1621.8449707 C1176.63626847 1625.0499017 1175.44232725 1628.28165631 1174.24804688 1631.52026367 C1168.67694726 1646.44405779 1162.62697216 1661.14772013 1156.31054688 1675.77026367 C1156.03459686 1676.41110901 1155.75864685 1677.05195435 1155.47433472 1677.71221924 C1152.54944907 1684.49520305 1149.54587668 1691.21203308 1146.1887207 1697.79418945 C1144.10318435 1701.91223642 1142.15650467 1706.09651693 1140.18554688 1710.27026367 C1129.48206946 1732.81833961 1117.8791552 1754.78350364 1105.51708984 1776.46704102 C1104.11310858 1778.94239853 1102.72496033 1781.42559668 1101.34570312 1783.91479492 C1100.94488525 1784.63642822 1100.54406738 1785.35806152 1100.13110352 1786.1015625 C1099.40957862 1787.40298135 1098.69099052 1788.70603589 1097.97631836 1790.01123047 C1095.91268847 1793.72185023 1093.61921298 1797.14264939 1091.12255859 1800.56469727 C1089.77709937 1802.4558182 1088.64712906 1804.40798409 1087.56054688 1806.45776367 C1082.65593242 1815.45457178 1077.15815935 1823.97797979 1071.45068359 1832.48120117 C1068.76583684 1836.48312689 1066.11496528 1840.49569423 1063.56054688 1844.58276367 C1060.26510599 1849.81142111 1056.79410884 1854.91594792 1053.31054688 1860.02026367 C1052.75117432 1860.84196045 1052.19180176 1861.66365723 1051.61547852 1862.51025391 C1048.87181193 1866.51371286 1046.05664373 1870.37404528 1042.99804688 1874.14526367 C1041.44411282 1876.30441415 1039.90330873 1878.46957489 1038.37304688 1880.64526367 C1033.82043252 1887.06685494 1029.08329838 1893.32170627 1024.24804688 1899.53198242 C1022.98908263 1901.15683315 1021.7418983 1902.79007164 1020.49804688 1904.42651367 C1015.5821499 1910.88540544 1010.51908756 1917.17860916 1005.29101562 1923.38745117 C1003.34421197 1925.72892201 1001.46817621 1928.09881065 999.62304688 1930.52026367 C992.65784782 1939.57173698 984.99552762 1948.09606443 977.31835938 1956.54370117 C975.15111314 1958.97364392 973.03800292 1961.43948268 970.93632507 1963.92582703 C957.8703968 1979.34168643 943.66000127 1993.64633952 929.36157227 2007.91210938 C927.4798592 2009.79021417 925.59956647 2011.66959792 923.72192383 2013.55175781 C920.96378659 2016.31609579 918.20218444 2019.0769241 915.43945312 2021.83666992 C914.60910049 2022.66904678 913.77874786 2023.50142365 912.92323303 2024.35902405 C908.10622143 2029.15686036 903.16146312 2033.72399914 897.99804688 2038.14526367 C896.32752226 2039.64096594 894.66023856 2041.14030634 892.99804688 2042.64526367 C888.69964682 2046.52033645 884.37431621 2050.35839088 879.99804688 2054.14526367 C879.48725586 2054.58773437 878.97646484 2055.03020508 878.45019531 2055.48608398 C871.86609708 2061.18277663 865.25515338 2066.81926949 858.42382812 2072.21948242 C855.75937965 2074.33473701 853.12742872 2076.48659634 850.49804688 2078.64526367 C846.16787215 2082.19588514 841.81363352 2085.71349816 837.43164062 2089.19995117 C835.87402264 2090.44504549 834.32376311 2091.69943693 832.78320312 2092.96557617 C816.32312579 2106.41500689 798.47487011 2118.22666533 780.77636719 2129.96508789 C778.11821313 2131.72916213 775.46446717 2133.49982859 772.81054688 2135.27026367 C771.83988281 2135.91608398 770.86921875 2136.5619043 769.86914062 2137.22729492 C767.98148318 2138.48830146 766.09850446 2139.75634522 764.22070312 2141.03198242 C757.52652677 2145.55904544 750.69962424 2149.81087869 743.78833008 2153.99682617 C738.99249034 2156.90676369 734.2576766 2159.89148159 729.56054688 2162.95776367 C724.75360748 2166.08367343 719.87258164 2168.9784313 714.80224609 2171.65869141 C712.14604106 2173.06680846 709.5034739 2174.49678393 706.86523438 2175.93823242 C705.42772827 2176.72339233 705.42772827 2176.72339233 703.96118164 2177.52441406 C701.10440448 2179.08708552 698.24837294 2180.65111034 695.39257812 2182.21557617 C693.53190104 2183.23380534 691.67122396 2184.25203451 689.81054688 2185.27026367 C688.87791016 2185.78202148 687.94527344 2186.2937793 686.984375 2186.82104492 C682.3522978 2189.35355094 677.70545812 2191.82233095 672.97094727 2194.1574707 C670.01954596 2195.6351801 667.11313581 2197.19506304 664.20043945 2198.74731445 C656.95642316 2202.6057577 649.69511934 2206.30134245 642.20507812 2209.66479492 C639.2537284 2211.02723286 636.3640053 2212.46817968 633.47143555 2213.94897461 C623.19684416 2219.2013081 612.64063695 2223.69694454 601.99804688 2228.14526367 C600.9688916 2228.57693848 599.93973633 2229.00861328 598.87939453 2229.45336914 C572.80095542 2240.38923249 572.80095542 2240.38923249 560.37304688 2245.02026367 C558.98627876 2245.53705832 557.59956148 2246.05398937 556.21289062 2246.57104492 C555.51534668 2246.83095215 554.81780273 2247.09085938 554.09912109 2247.35864258 C552.04323841 2248.12834441 549.99087058 2248.9067164 547.93945312 2249.68823242 C547.2680127 2249.9429834 546.59657227 2250.19773437 545.90478516 2250.46020508 C544.0693617 2251.15696513 542.23484004 2251.85609943 540.40039062 2252.55541992 C536.04462595 2254.16351366 531.63643559 2255.60927313 527.22865295 2257.06741333 C522.1243817 2258.759751 517.03920688 2260.50325298 511.95898438 2262.26635742 C480.72992542 2273.08513265 480.72992542 2273.08513265 465.84179688 2277.09448242 C462.51155239 2278.00488462 459.27048099 2279.0513357 455.99804688 2280.14526367 C454.58717698 2280.48297189 453.17049448 2280.79773123 451.74804688 2281.08276367 C447.62332666 2281.96564693 443.63081548 2283.12063026 439.59960938 2284.35620117 C433.6241257 2286.16858511 427.64082621 2287.87915709 421.49804688 2289.02026367 C416.56801431 2289.95001625 411.77232609 2291.26539616 406.93554688 2292.58276367 C399.87229257 2294.49842399 392.83692727 2296.03052429 385.60522461 2297.15673828 C381.55497968 2297.79957854 377.86695064 2298.80362769 373.99804688 2300.14526367 C365.31043513 2302.32001314 356.51555265 2303.77380605 347.65942383 2305.05517578 C344.24156034 2305.56332917 341.02836858 2306.13637938 337.70507812 2307.11010742 C332.41253757 2308.58800336 327.05270083 2309.33578161 321.62304688 2310.14526367 C319.89453491 2310.40799072 319.89453491 2310.40799072 318.13110352 2310.67602539 C310.32984684 2311.8450427 302.52888257 2312.85283714 294.68164062 2313.65307617 C291.99275336 2314.01235485 289.56311925 2314.46471853 286.94726562 2315.10229492 C280.50654814 2316.59257279 273.94279084 2317.08065175 267.37304688 2317.70776367 C264.81824082 2317.95785764 262.26354905 2318.20912238 259.70898438 2318.46166992 C258.5879834 2318.56938721 257.46698242 2318.67710449 256.31201172 2318.78808594 C253.98803472 2319.0385632 251.66902922 2319.33768127 249.35571289 2319.67260742 C246.72700204 2320.04264917 244.21114378 2320.2996236 241.56445312 2320.39135742 C240.76201172 2320.42293945 239.95957031 2320.45452148 239.1328125 2320.48706055 C238.28396484 2320.51864258 237.43511719 2320.55022461 236.56054688 2320.58276367 C228.35673665 2320.93073262 220.18110962 2321.46641232 211.99804688 2322.14526367 C210.97783447 2322.22832764 209.95762207 2322.3113916 208.90649414 2322.39697266 C207.94670654 2322.47890869 206.98691895 2322.56084473 205.99804688 2322.64526367 C204.72960938 2322.75354492 204.72960938 2322.75354492 203.43554688 2322.86401367 C201.03581509 2323.09634589 201.03581509 2323.09634589 198.8717041 2323.62820435 C195.12181298 2324.3029251 191.38051166 2324.51052779 187.58203125 2324.69946289 C186.75079491 2324.74157331 185.91955856 2324.78368374 185.06313324 2324.82707024 C174.92910853 2325.29677507 164.79704608 2325.2898085 154.65429688 2325.27807617 C152.54895008 2325.27875286 150.44360337 2325.27972589 148.33825684 2325.28097534 C143.95140836 2325.28243778 139.56458043 2325.28034682 135.17773438 2325.27563477 C129.63890379 2325.26996596 124.10012154 2325.27330302 118.56129265 2325.27907181 C57.09816681 2325.33357993 57.09816681 2325.33357993 29.85693359 2321.87329102 C24.72867321 2321.24699978 19.64878356 2320.99329613 14.48535156 2320.85424805 C2.86696349 2320.5407302 -8.45547656 2319.47441569 -19.95507812 2317.83276367 C-23.96880579 2317.26318813 -27.95289513 2316.8822817 -32.00195312 2316.64526367 C-37.80741846 2316.27341034 -43.32249662 2315.1033215 -49.00585938 2313.89916992 C-53.19013819 2313.06355671 -57.38478254 2312.58083538 -61.62695312 2312.14526367 C-88.9477126 2309.31692928 -88.9477126 2309.31692928 -100.43164062 2305.82495117 C-103.46376034 2305.02314444 -106.4544177 2304.61157237 -109.56445312 2304.20776367 C-115.28608531 2303.45541646 -120.87352676 2302.397874 -126.50195312 2301.14526367 C-127.25549072 2300.97905518 -128.00902832 2300.81284668 -128.78540039 2300.64160156 C-131.99249953 2299.91318769 -135.07848129 2299.11966084 -138.20117188 2298.07495117 C-140.93564907 2297.16727255 -143.46652032 2296.67416731 -146.31445312 2296.27026367 C-151.56192074 2295.44275313 -156.70875341 2294.36058722 -161.87695312 2293.14526367 C-162.59020752 2292.97913574 -163.30346191 2292.81300781 -164.03833008 2292.6418457 C-167.15159184 2291.89887088 -170.16239794 2291.09158617 -173.20117188 2290.07495117 C-175.8083254 2289.20953619 -178.2307511 2288.68962038 -180.93945312 2288.27026367 C-188.86102909 2286.90110239 -197.13329897 2285.1249875 -204.59570312 2282.09057617 C-207.27011169 2281.03991566 -209.80033994 2280.53884129 -212.62695312 2280.02026367 C-223.5794294 2277.76465815 -234.22693809 2274.32452165 -244.91821289 2271.07885742 C-247.63440599 2270.25653754 -250.35458685 2269.44948566 -253.07617188 2268.64526367 C-258.78003908 2266.93537437 -264.42050413 2265.04202985 -270.06445312 2263.14526367 C-271.60069336 2262.63092773 -271.60069336 2262.63092773 -273.16796875 2262.10620117 C-275.17869237 2261.43296208 -277.18903893 2260.75859565 -279.19897461 2260.08300781 C-280.96219982 2259.49311599 -282.72711588 2258.90823085 -284.49438477 2258.33056641 C-289.1878654 2256.79434584 -293.74795075 2255.08926246 -298.31445312 2253.20776367 C-302.83654483 2251.36543001 -307.35166786 2249.64515325 -312.00195312 2248.14526367 C-318.5005372 2246.03996602 -324.7977963 2243.48841817 -331.11816406 2240.90991211 C-334.05106232 2239.71941997 -336.99648497 2238.56060006 -339.93945312 2237.39526367 C-349.76892848 2233.46347353 -359.53331328 2229.37474632 -369.29541016 2225.27905273 C-371.55880607 2224.33090096 -373.82459504 2223.38894624 -376.09179688 2222.44995117 C-382.8843831 2219.60220024 -389.46166409 2216.46075062 -396.01879883 2213.11669922 C-401.58181664 2210.29890829 -407.24553293 2207.83502942 -413.01367188 2205.46948242 C-415.85497574 2204.21039483 -418.35640044 2202.76903104 -421.00195312 2201.14526367 C-423.67247548 2199.67565608 -426.36827508 2198.25463619 -429.06445312 2196.83276367 C-429.82395264 2196.43033447 -430.58345215 2196.02790527 -431.3659668 2195.61328125 C-435.48134784 2193.44131087 -439.61886768 2191.34664469 -443.81445312 2189.33276367 C-450.27762208 2186.14581434 -456.39186616 2182.39194161 -462.53442383 2178.63427734 C-466.76095332 2176.05522748 -471.00932648 2173.57580485 -475.37304688 2171.23510742 C-481.41030063 2167.9754253 -487.20322048 2164.37110184 -493.00195312 2160.70776367 C-494.00484375 2160.07805664 -495.00773437 2159.44834961 -496.04101562 2158.79956055 C-501.86950574 2155.13604577 -507.68150144 2151.4468297 -513.48657227 2147.74633789 C-516.13401123 2146.06120689 -518.78644794 2144.38411449 -521.43945312 2142.70776367 C-526.33284931 2139.59378428 -531.1669429 2136.39778016 -535.98242188 2133.16479492 C-537.93542489 2131.85858204 -539.89593971 2130.5635016 -541.86523438 2129.28198242 C-549.85451912 2124.06029835 -557.45926611 2118.39220798 -565.05517578 2112.62207031 C-570.03801245 2108.84213816 -575.04015393 2105.09703319 -580.12695312 2101.45776367 C-594.72746729 2090.86126863 -608.58782772 2079.27120067 -622.31494141 2067.57788086 C-623.98545715 2066.15927212 -625.66296355 2064.74932566 -627.34179688 2063.34057617 C-636.14368579 2055.92044552 -644.52640753 2048.10317158 -652.8671875 2040.17114258 C-656.27296572 2036.93908085 -659.69989668 2033.72972924 -663.12695312 2030.52026367 C-663.78550293 2029.90231934 -664.44405273 2029.284375 -665.12255859 2028.64770508 C-668.32992791 2025.63956107 -671.54446825 2022.63982512 -674.77539062 2019.65698242 C-681.464554 2013.47295838 -688.04763834 2007.1998119 -694.50195312 2000.77026367 C-695.14841797 2000.12839111 -695.79488281 1999.48651855 -696.4609375 1998.82519531 C-700.28049646 1994.99326731 -703.889576 1991.03377967 -707.42578125 1986.93969727 C-709.35794856 1984.73997147 -711.40097813 1982.683523 -713.50195312 1980.64526367 C-716.85129041 1977.33539669 -720.00121269 1973.93779418 -723.06445312 1970.36401367 C-724.98820843 1968.16100357 -726.96346068 1966.01161024 -728.95288086 1963.86791992 C-733.84472662 1958.59448838 -738.50527626 1953.1977778 -743.02148438 1947.59448242 C-744.65051338 1945.57988443 -746.30510281 1943.60245267 -748.00195312 1941.64526367 C-750.45180774 1938.81282902 -752.82508826 1935.92445698 -755.18945312 1933.02026367 C-758.10244134 1929.44256674 -761.0507757 1925.90223298 -764.04931641 1922.39648438 C-771.63207469 1913.52596226 -778.70372193 1904.30238553 -785.65039062 1894.92651367 C-786.67963369 1893.5700546 -787.73537475 1892.23365719 -788.80273438 1890.90698242 C-791.53844634 1887.47155017 -794.18028783 1883.97136682 -796.81445312 1880.45776367 C-797.34925293 1879.74442871 -797.88405273 1879.03109375 -798.43505859 1878.29614258 C-801.7852734 1873.81191512 -805.06262175 1869.28911232 -808.24023438 1864.68041992 C-809.97926466 1862.17791293 -811.75440455 1859.70337761 -813.53686523 1857.23168945 C-824.0023675 1842.70038056 -833.81423759 1827.68960803 -843.12695312 1812.39526367 C-845.50439614 1808.49889873 -847.96204003 1804.72542793 -850.62695312 1801.02026367 C-853.58955264 1796.86727429 -856.01714162 1792.57627766 -858.40039062 1788.07104492 C-860.75569547 1783.7683051 -863.36495295 1779.63316989 -865.97460938 1775.48120117 C-870.27035852 1768.41266596 -874.11031591 1761.09889216 -877.93945312 1753.77026367 C-880.61442195 1748.66819958 -883.29168857 1743.57010303 -886.06445312 1738.52026367 C-894.67681079 1722.79125191 -902.85474085 1706.88349514 -910.07226562 1690.45776367 C-911.76957224 1686.61283601 -913.63459484 1682.87993542 -915.56445312 1679.14526367 C-922.83106885 1664.83180647 -929.4853259 1650.00743436 -934.90429688 1634.89135742 C-935.7984599 1632.65435881 -936.77345418 1630.61275408 -937.88085938 1628.48120117 C-940.36717734 1623.58984761 -942.17398658 1618.49891131 -944.00195312 1613.33276367 C-944.33195313 1612.41172852 -944.66195312 1611.49069336 -945.00195312 1610.54174805 C-945.66882628 1608.68049466 -946.33435313 1606.81875837 -946.99853516 1604.95654297 C-949.57765892 1597.73060375 -952.19814676 1590.54976861 -955.12695312 1583.45776367 C-957.18752018 1578.39451054 -958.80669741 1573.47794303 -960.00195312 1568.14526367 C-961.29264594 1563.86046369 -962.73936818 1559.73345395 -964.56445312 1555.64526367 C-965.8899368 1552.41799907 -966.58860365 1549.38994115 -967.27539062 1545.98510742 C-968.25063788 1542.17325389 -969.59412352 1538.52755159 -970.93945312 1534.83276367 C-973.07094387 1528.96861753 -974.82128305 1523.18109896 -976.22460938 1517.09448242 C-977.11240351 1513.72621824 -978.2818089 1510.5324297 -979.50195312 1507.27026367 C-981.61215611 1501.53000913 -983.00726136 1495.9024515 -984.18945312 1489.91088867 C-985.12014076 1485.59750946 -986.28802127 1481.38575953 -987.50195312 1477.14526367 C-989.67222339 1469.52876746 -991.43096933 1461.91012627 -993.00195312 1454.14526367 C-993.3305379 1452.62339732 -993.66333217 1451.10242843 -994.00195312 1449.58276367 C-994.15664063 1448.8840918 -994.31132813 1448.18541992 -994.47070312 1447.46557617 C-994.87331911 1445.70709166 -995.29302334 1443.95250856 -995.72070312 1442.19995117 C-997.39063164 1435.26974785 -998.61345923 1428.41450398 -999.47460938 1421.33666992 C-999.91001852 1418.16252914 -999.91001852 1418.16252914 -1000.96679688 1415.30541992 C-1002.29325225 1411.25597692 -1002.8863673 1407.22789426 -1003.50195312 1403.02026367 C-1003.74090832 1401.43423141 -1003.98050199 1399.84829522 -1004.22070312 1398.26245117 C-1004.34509766 1397.43688721 -1004.46949219 1396.61132324 -1004.59765625 1395.76074219 C-1005.18284233 1391.97505472 -1005.81828931 1388.19828874 -1006.453125 1384.4206543 C-1007.05017691 1380.85746547 -1007.63596872 1377.29252509 -1008.22070312 1373.72729492 C-1008.64775953 1371.13744673 -1009.07484319 1368.54760303 -1009.50195312 1365.95776367 C-1009.82099609 1364.00580078 -1009.82099609 1364.00580078 -1010.14648438 1362.0144043 C-1011.42815947 1354.20521757 -1011.42815947 1354.20521757 -1013.06445312 1346.46557617 C-1014.30890808 1341.10354964 -1014.88366964 1335.67143938 -1015.50195312 1330.20776367 C-1015.63013428 1329.10311768 -1015.75831543 1327.99847168 -1015.89038086 1326.86035156 C-1016.14702286 1324.64079301 -1016.40154396 1322.42098806 -1016.65380859 1320.20092773 C-1016.95183601 1317.58514155 -1017.25777543 1314.97051757 -1017.56835938 1312.35620117 C-1025.93503014 1240.99010856 -1026.63424431 1168.90327959 -1027.00195312 1097.14526367 C-1027.01062983 1095.5242309 -1027.01931695 1093.90319818 -1027.02801514 1092.28216553 C-1027.08023344 1082.31986664 -1027.11222501 1072.35769 -1027.12695312 1062.39526367 C-1027.1297226 1061.15563873 -1027.13249207 1059.91601379 -1027.13534546 1058.63882446 C-1027.14108098 1055.18781379 -1027.13942347 1051.73689919 -1027.13476562 1048.28588867 C-1027.13771889 1046.81707497 -1027.13771889 1046.81707497 -1027.14073181 1045.31858826 C-1027.07384535 1025.38022257 -1027.07384535 1025.38022257 -1021.00195312 1018.14526367 C-1015.2700652 1012.56034723 -1009.20436362 1011.84746833 -1001.4661541 1011.8975172 C-1000.61624258 1011.89501912 -999.76633105 1011.89252104 -998.89066464 1011.88994727 C-996.03550367 1011.88397911 -993.18056191 1011.89227208 -990.32540894 1011.9004364 C-988.26068041 1011.89901423 -986.19595235 1011.89670173 -984.13122571 1011.89357406 C-978.45169244 1011.88746525 -972.77222893 1011.89372291 -967.09270072 1011.90188468 C-960.96997036 1011.90846605 -954.84724898 1011.9034668 -948.72451782 1011.8996582 C-938.80283143 1011.89477208 -928.8811625 1011.89521296 -918.95947759 1011.90036297 C-902.21711516 1011.90903513 -885.47479749 1011.90029111 -868.73244051 1011.88602132 C-862.29129345 1011.88060067 -855.85014594 1011.87571637 -849.40899849 1011.87079334 C-848.69340883 1011.8702431 -847.97781917 1011.86969287 -847.24054498 1011.86912595 C-830.20903033 1011.85610982 -813.17751448 1011.84797782 -796.14599609 1011.84179688 C-795.4007951 1011.8415216 -794.65559411 1011.84124633 -793.88781127 1011.84096271 C-776.49450157 1011.83459975 -759.10119633 1011.83165255 -741.70788574 1011.83557129 C-740.95940669 1011.83573881 -740.21092764 1011.83590633 -739.4397674 1011.83607893 C-735.6654378 1011.83693686 -731.89110821 1011.8378351 -728.11677863 1011.83874825 C-727.37081236 1011.83892866 -726.62484609 1011.83910907 -725.85627478 1011.83929494 C-724.3506063 1011.83966072 -722.84493782 1011.84002983 -721.33926935 1011.84040227 C-696.48049327 1011.84645056 -671.62177065 1011.83572184 -646.76301084 1011.8059185 C-643.25495223 1011.80173312 -639.74689341 1011.79776895 -636.23883438 1011.79395485 C-635.54840784 1011.79320181 -634.85798129 1011.79244878 -634.14663273 1011.79167293 C-623.02134026 1011.78009178 -611.89612911 1011.78675052 -600.77084218 1011.80054409 C-589.5985148 1011.81409299 -578.42630792 1011.80961129 -567.25398384 1011.78757437 C-561.19780169 1011.77621264 -555.14190206 1011.77317157 -549.08573151 1011.79174995 C-543.54787861 1011.80858192 -538.01054534 1011.80267749 -532.47272505 1011.77825139 C-530.46342687 1011.77349904 -528.45408757 1011.7773064 -526.44482563 1011.79027685 C-523.72460066 1011.80663093 -521.00621423 1011.79255923 -518.28606987 1011.77053356 C-517.1011455 1011.78868719 -517.1011455 1011.78868719 -515.89228326 1011.80720755 C-512.02192205 1011.74223071 -510.38067127 1011.52059436 -507.58185208 1008.7468093 C-507.06048542 1007.88829925 -506.53911877 1007.02978919 -506.00195312 1006.14526367 C-505.48632812 1005.40276367 -504.97070312 1004.66026367 -504.43945312 1003.89526367 C-502.87817903 1000.90847845 -501.88946474 997.97655045 -500.87695312 994.77026367 C-499.90208793 991.84566808 -498.77184255 989.00748722 -497.62695312 986.14526367 C-495.63807818 981.05730598 -494.03649771 975.9595894 -492.56445312 970.70776367 C-490.70944736 964.15034744 -488.3879111 958.01131491 -485.58789062 951.78588867 C-484.13954884 948.46112379 -482.85278101 945.12230135 -481.5949707 941.72363281 C-477.89152206 931.76947502 -473.20324926 922.56134758 -468.12841797 913.24438477 C-466.59761092 910.39178854 -465.17125948 907.49215545 -463.75195312 904.58276367 C-461.53677764 900.09625333 -459.06256636 895.84715544 -456.44335938 891.58666992 C-454.49717734 888.29029114 -452.83013344 884.87989956 -451.14257812 881.44604492 C-448.64075257 876.39955433 -445.82600673 871.84911862 -442.56445312 867.27026367 C-440.35069517 864.16068418 -438.35027532 861.08031301 -436.56445312 857.70776367 C-434.14156475 853.20134914 -431.21317304 849.18949048 -428.16601562 845.08666992 C-425.92522663 842.04097657 -423.76954118 838.94822299 -421.62695312 835.83276367 C-420.0869376 833.60245339 -418.54463751 831.37372852 -417.00195312 829.14526367 C-416.61813477 828.58967773 -416.23431641 828.0340918 -415.83886719 827.46166992 C-409.02288668 817.63212934 -401.65527345 808.33439866 -394.00195312 799.14526367 C-393.25631104 798.24880127 -393.25631104 798.24880127 -392.49560547 797.33422852 C-387.13864017 790.90983695 -381.67486451 784.59493707 -376.04492188 778.40698242 C-374.18376887 776.34654726 -372.3702407 774.25412049 -370.56445312 772.14526367 C-366.29160072 767.23496941 -361.63538811 762.71165538 -357.00195312 758.14526367 C-354.38109571 755.532793 -351.76957692 752.91161298 -349.16992188 750.27807617 C-344.26643839 745.32155118 -339.36641787 740.43637653 -334.05273438 735.91479492 C-331.52536058 733.73403239 -329.08152423 731.47008864 -326.62695312 729.20776367 C-321.58634503 724.61659252 -316.37564206 720.33766754 -311.00195312 716.14526367 C-309.90772699 715.28258601 -308.81400566 714.4192678 -307.72070312 713.55541992 C-304.15609909 710.7413639 -300.58038959 707.94169741 -297.00195312 705.14526367 C-296.47230957 704.73018555 -295.94266602 704.31510742 -295.39697266 703.88745117 C-281.95825055 693.37055915 -268.25375943 683.32296619 -253.68554688 674.42260742 C-250.28652859 672.3419535 -246.98403814 670.13829517 -243.68945312 667.89526367 C-239.25135282 664.91071568 -234.7441674 662.26079122 -230.01757812 659.76245117 C-227.79449035 658.57027716 -225.60641353 657.35278032 -223.42382812 656.09057617 C-211.01060578 648.92795363 -198.18742354 642.75306013 -185.00195312 637.14526367 C-183.39499853 636.42226184 -181.79069692 635.69332674 -180.18945312 634.95776367 C-178.12714667 634.019838 -176.06461852 633.08239971 -174.00195312 632.14526367 C-173.01243652 631.69376953 -173.01243652 631.69376953 -172.00292969 631.2331543 C-158.51656804 625.09352033 -144.95432891 619.72618144 -130.85742188 615.14135742 C-127.86378585 614.09706579 -124.97673857 612.89773676 -122.06445312 611.64526367 C-116.93117992 609.45862262 -111.76496338 607.75701908 -106.41601562 606.18041992 C-102.76326374 605.07289218 -99.17056403 603.83333008 -95.56445312 602.58276367 C-89.68536114 600.58148258 -83.80088897 599.11816273 -77.71289062 597.89916992 C-73.37283078 597.0174525 -69.06334118 596.03152642 -64.75195312 595.02026367 C-64.01219238 594.84938232 -63.27243164 594.67850098 -62.51025391 594.50244141 C-58.65457103 593.62084426 -58.65457103 593.62084426 -55.00195312 592.14526367 C-52.77727423 591.82113827 -50.54683672 591.53619024 -48.31445312 591.27026367 C-41.475956 590.42255755 -34.78649763 589.16686493 -28.04882812 587.73120117 C-25.00195312 587.14526367 -25.00195312 587.14526367 -22.00195312 587.14526367 C-19.58306133 581.17866392 -18.86152675 576.41291607 -18.88449192 569.98747635 C-18.88393727 569.03386923 -18.88338262 568.08026212 -18.88281116 567.09775782 C-18.8821645 563.87181274 -18.88871108 560.64592106 -18.89515686 557.41998291 C-18.89615209 555.09599533 -18.89670246 552.77200753 -18.89684385 550.44801974 C-18.89832235 544.71116127 -18.90445085 538.97432062 -18.91246435 533.23746787 C-18.9217859 526.36839266 -18.92527662 519.49931779 -18.9284548 512.63023743 C-18.93444472 499.95066417 -18.94480879 487.27109814 -18.95735359 474.59152985 C-18.97517006 456.47772646 -18.98458361 438.36392402 -18.99224424 420.25011387 C-18.99535399 412.9845462 -18.99873592 405.71897865 -19.00212002 398.4534111 C-19.00249479 397.64615461 -19.00286956 396.83889813 -19.00325569 396.00717932 C-19.01223193 376.7836749 -19.02389207 357.56017235 -19.03637695 338.33666992 C-19.03692136 337.49534262 -19.03746576 336.65401531 -19.03802666 335.78719324 C-19.05075099 316.15813563 -19.06476033 296.52907945 -19.08099365 276.90002441 C-19.08169084 276.05586045 -19.08238803 275.21169649 -19.08310634 274.34195181 C-19.08662392 270.08536593 -19.09015075 265.82878006 -19.09367823 261.57219419 C-19.09437501 260.7309517 -19.09507179 259.88970921 -19.09578969 259.02297452 C-19.09719645 257.32500451 -19.09860472 255.6270345 -19.10001449 253.92906449 C-19.1232557 225.88612228 -19.13971551 197.84318246 -19.1486911 169.80023196 C-19.14996773 165.84123483 -19.1513365 161.88223774 -19.15276909 157.92324066 C-19.15305044 157.14405525 -19.15333178 156.36486984 -19.15362165 155.56207276 C-19.15838209 143.01179395 -19.17054987 130.46153263 -19.18565599 117.91126245 C-19.20071853 105.3013312 -19.20873176 92.69141186 -19.20944268 80.08147147 C-19.21003943 73.24731737 -19.21391214 66.41320241 -19.22690582 59.5790596 C-19.23848806 53.32683128 -19.24091627 47.07466979 -19.23596364 40.82243332 C-19.23581192 38.55659669 -19.23907632 36.2907568 -19.24604071 34.02493086 C-19.25500019 30.95200924 -19.25168717 27.87933788 -19.24525547 24.80641556 C-19.25079535 23.92081137 -19.25633522 23.03520718 -19.26204297 22.12276649 C-19.23203891 16.29371279 -19.06630712 10.63857434 -15.19726562 5.96557617 C-14.5140625 5.40612305 -13.83085938 4.84666992 -13.12695312 4.27026367 C-12.44890625 3.6953418 -11.77085937 3.12041992 -11.07226562 2.52807617 C-7.53083608 0.16266852 -4.18684776 0.0182951 0 0 Z M65.87921143 734.92059326 C63.73092333 735.17716665 61.62185782 735.25568716 59.45898438 735.25073242 C46.47271189 735.42421069 33.86761534 737.01047507 21.06054688 739.02026367 C20.23601013 739.1492807 19.41147339 739.27829773 18.56195068 739.41122437 C-3.43644907 742.81052353 -3.43644907 742.81052353 -25.00195312 748.20776367 C-26.73075347 748.72071863 -28.45991533 749.23245695 -30.18945312 749.74291992 C-31.00502686 749.98518311 -31.82060059 750.22744629 -32.66088867 750.47705078 C-34.81357569 751.09149487 -36.96883292 751.63554382 -39.14648438 752.15307617 C-43.12702356 753.17744998 -46.86337941 754.47607891 -50.68945312 755.95776367 C-51.30755859 756.19301758 -51.92566406 756.42827148 -52.5625 756.6706543 C-53.91455466 757.18630277 -55.26538847 757.70515943 -56.61523438 758.2265625 C-58.37594768 758.90430024 -60.13938945 759.57495971 -61.90429688 760.24169922 C-70.23322405 763.40377134 -78.45256648 766.79332506 -86.62695312 770.33276367 C-87.28080994 770.61561218 -87.93466675 770.89846069 -88.6083374 771.18988037 C-98.89081029 775.6531361 -108.91762214 780.44099245 -118.72167969 785.88305664 C-121.20949632 787.26014572 -123.71016025 788.61188792 -126.21289062 789.96166992 C-135.01796741 794.72882704 -143.64155491 799.62577747 -152.00195312 805.14526367 C-153.73019676 806.23006891 -155.4594018 807.31334367 -157.18945312 808.39526367 C-175.80845854 820.28197334 -193.82378965 833.28770084 -210.46875 847.82250977 C-212.04011675 849.17818892 -213.63415039 850.50196951 -215.23632812 851.82104492 C-228.54877261 862.85572416 -241.39108756 875.00611028 -252.02929688 888.66870117 C-254.27680705 891.4903278 -256.6787173 894.12135278 -259.12695312 896.77026367 C-263.36324644 901.3845647 -267.22964471 906.1501519 -271.00195312 911.14526367 C-272.23237399 912.72923079 -273.46283219 914.31316914 -274.6940918 915.89648438 C-278.71998675 921.08723599 -282.62623403 926.33260037 -286.34960938 931.74682617 C-287.48745395 933.39844926 -288.64217422 935.03853111 -289.81054688 936.66870117 C-293.11794633 941.29194772 -296.07192344 945.92756131 -298.75976562 950.93432617 C-300.47036741 953.97898218 -302.42882105 956.83070124 -304.3894043 959.71826172 C-309.51680179 967.43536368 -313.88324666 975.543334 -318.12695312 983.77026367 C-318.63871094 984.75510742 -319.15046875 985.73995117 -319.67773438 986.75463867 C-323.95866626 995.0083634 -328.12941308 1003.25972111 -331.87695312 1011.77026367 C-332.2235498 1012.5565918 -332.57014648 1013.34291992 -332.92724609 1014.15307617 C-333.62695132 1015.74281677 -334.32569991 1017.33297881 -335.0234375 1018.92358398 C-335.88717306 1020.88466023 -336.7623682 1022.83998461 -337.64257812 1024.79370117 C-341.7425354 1034.05097312 -344.93175571 1043.51087823 -348.00195312 1053.14526367 C-348.50662109 1054.69020508 -348.50662109 1054.69020508 -349.02148438 1056.26635742 C-350.06694657 1059.54510481 -351.04982104 1062.83851361 -352.00195312 1066.14526367 C-352.24526367 1066.98895508 -352.48857422 1067.83264648 -352.73925781 1068.7019043 C-360.8989292 1097.30462336 -366.72134962 1125.81822002 -369.62744141 1155.40551758 C-369.94823937 1158.60889644 -370.30709009 1161.80381292 -370.68554688 1165.00073242 C-374.47921463 1199.44152809 -372.93861347 1235.17954141 -367.70898438 1269.36401367 C-367.08805925 1273.44875071 -366.62407149 1277.53614461 -366.18945312 1281.64526367 C-363.67662293 1301.93327792 -358.57051167 1321.83450018 -352.79296875 1341.4074707 C-352.00535875 1344.13347641 -351.2757801 1346.8702609 -350.55273438 1349.61401367 C-348.94986388 1355.52397436 -346.96300034 1361.26541508 -344.87695312 1367.02026367 C-344.29252441 1368.63904419 -344.29252441 1368.63904419 -343.69628906 1370.29052734 C-340.13408975 1380.02372991 -336.11828429 1389.52371176 -331.93310547 1399.00219727 C-330.74634439 1401.73355246 -329.65650792 1404.4998931 -328.56445312 1407.27026367 C-324.98943616 1415.85755105 -320.44959052 1423.98725999 -316.00195312 1432.14526367 C-315.43138184 1433.19198242 -314.86081055 1434.23870117 -314.27294922 1435.31713867 C-312.44244564 1438.66120525 -310.59970371 1441.99819909 -308.75195312 1445.33276367 C-308.17388916 1446.38359131 -307.5958252 1447.43441895 -307.00024414 1448.51708984 C-304.05576169 1453.78876548 -301.01714582 1458.75360652 -297.26025391 1463.48706055 C-295.66166577 1465.59369823 -294.4452766 1467.87851931 -293.17382812 1470.19213867 C-291.10929816 1473.63302195 -288.67323764 1476.80661441 -286.29101562 1480.03198242 C-283.31299688 1484.0822912 -280.40567412 1488.18131882 -277.50341797 1492.28613281 C-275.10378608 1495.66283411 -272.61563635 1498.93206356 -270.00195312 1502.14526367 C-269.39738281 1502.91483398 -268.7928125 1503.6844043 -268.16992188 1504.47729492 C-257.20711326 1518.20783431 -244.70254876 1530.55080856 -232.32867432 1542.99377441 C-230.95944268 1544.37109468 -229.59169038 1545.74988738 -228.2255249 1547.13024902 C-221.21866497 1554.20210845 -214.23288136 1561.05313379 -206.4140625 1567.23095703 C-204.15197128 1569.02620574 -201.98576428 1570.88853439 -199.83007812 1572.80932617 C-195.94560409 1576.24133604 -191.88751542 1579.39815555 -187.75195312 1582.52026367 C-187.01178955 1583.08189209 -186.27162598 1583.64352051 -185.5090332 1584.22216797 C-184.02608047 1585.34647399 -182.5421377 1586.46947553 -181.05712891 1587.59106445 C-179.25176677 1588.95634544 -177.45183081 1590.3283005 -175.65429688 1591.70385742 C-168.94508247 1596.8042747 -162.06207487 1601.54548738 -155.00195312 1606.14526367 C-153.98101563 1606.83104492 -152.96007813 1607.51682617 -151.90820312 1608.22338867 C-141.32415402 1615.22902117 -130.1951198 1621.17773107 -119.00195312 1627.14526367 C-117.75454346 1627.81235352 -117.75454346 1627.81235352 -116.48193359 1628.49291992 C-103.02194807 1635.91426159 -103.02194807 1635.91426159 -89.00195312 1642.14526367 C-85.96723779 1643.29353434 -83.09685014 1644.59302864 -80.21679688 1646.07885742 C-76.10765395 1648.15896049 -71.91987295 1649.72707935 -67.56445312 1651.20776367 C-66.81437988 1651.4674292 -66.06430664 1651.72709473 -65.29150391 1651.99462891 C-63.19705131 1652.71774083 -61.10025963 1653.43342492 -59.00195312 1654.14526367 C-58.15246094 1654.43401367 -57.30296875 1654.72276367 -56.42773438 1655.02026367 C-54.28860122 1655.7373826 -52.14580192 1656.44236243 -50.00195312 1657.14526367 C-47.41795858 1657.9974902 -44.83467822 1658.85171277 -42.25195312 1659.70776367 C-40.3725 1660.32844727 -40.3725 1660.32844727 -38.45507812 1660.96166992 C-36.48392112 1661.63730405 -34.52160995 1662.34504897 -32.59765625 1663.14526367 C-30.07040119 1664.11889391 -27.66271162 1664.76113509 -25.01757812 1665.32885742 C-24.08171875 1665.53446289 -23.14585937 1665.74006836 -22.18164062 1665.9519043 C-20.24425203 1666.36908864 -18.30675371 1666.78576382 -16.36914062 1667.2019043 C-11.10673242 1668.35891322 -6.07024272 1669.74245619 -0.98193359 1671.50927734 C1.67891776 1672.36396511 4.287976 1672.75765325 7.06054688 1673.08276367 C14.66763549 1674.06352591 22.21162113 1675.33422198 29.76782227 1676.64892578 C32.84106387 1677.17312246 35.91781024 1677.66378636 38.99804688 1678.14526367 C40.10575439 1678.31878357 41.21346191 1678.49230347 42.35473633 1678.67108154 C53.80043222 1680.2859033 65.08585809 1680.43805125 76.63085938 1680.41088867 C78.68195644 1680.41224018 80.73305319 1680.41418472 82.78414917 1680.41668701 C87.05518687 1680.41961414 91.32614018 1680.41541817 95.59716797 1680.40600586 C101.03450277 1680.39459829 106.47164033 1680.40119458 111.90896797 1680.41315079 C116.13521781 1680.42042257 120.36142187 1680.41805743 124.58767319 1680.4128952 C126.59126688 1680.41157413 128.59486491 1680.41315142 130.59845352 1680.41785431 C141.60531619 1680.4380348 152.13967202 1680.1176804 162.99804688 1678.14526367 C164.58770141 1677.88369445 166.17750297 1677.62301366 167.76757812 1677.36401367 C169.11573068 1677.12723905 170.46340562 1676.88772602 171.81054688 1676.64526367 C172.53282471 1676.51708252 173.25510254 1676.38890137 173.99926758 1676.25683594 C178.26635967 1675.48953966 182.48351315 1674.60339955 186.70117188 1673.60620117 C189.76243048 1672.99186696 192.83994344 1672.61298215 195.93554688 1672.20776367 C200.8437347 1671.52897174 205.36594698 1670.59453704 210.06445312 1669.05151367 C213.23896125 1668.07084006 216.43410152 1667.26246146 219.65600586 1666.45458984 C228.1036342 1664.32533607 236.18345685 1661.77148788 244.28710938 1658.57495117 C247.7272799 1657.24958021 251.1810211 1656.06822584 254.68164062 1654.91772461 C258.54325819 1653.62997609 262.36513172 1652.23733974 266.18554688 1650.83276367 C267.00490723 1650.53152588 267.82426758 1650.23028809 268.66845703 1649.91992188 C274.90505116 1647.6026218 281.02576955 1645.0848796 287.11523438 1642.40698242 C288.9076126 1641.62251336 290.71219359 1640.86466673 292.53320312 1640.14916992 C295.28648032 1639.02778761 297.90810222 1637.73772546 300.56054688 1636.39526367 C301.61113281 1635.86545898 302.66171875 1635.3356543 303.74414062 1634.78979492 C304.81792969 1634.24709961 305.89171875 1633.7044043 306.99804688 1633.14526367 C309.03919849 1632.12340088 311.08085346 1631.10254283 313.12304688 1630.08276367 C314.11820313 1629.58389648 315.11335938 1629.0850293 316.13867188 1628.57104492 C317.91571409 1627.68495147 319.69635495 1626.80599135 321.48242188 1625.93823242 C340.27950314 1616.75469109 359.85114284 1605.50167926 375.99804688 1592.14526367 C378.07816681 1590.53667352 380.16105227 1588.93235962 382.24804688 1587.33276367 C383.40957194 1586.43962129 384.57103013 1585.54639191 385.73242188 1584.65307617 C387.61476289 1583.20620211 389.49975027 1581.76324769 391.38867188 1580.32495117 C401.46539675 1572.5994621 410.98741694 1564.25595562 420.29492188 1555.62963867 C422.51648776 1553.58785268 424.76623705 1551.60382084 427.06054688 1549.64526367 C434.29998471 1543.35600205 441.04523735 1536.44162127 447.27148438 1529.15307617 C449.2234639 1526.88312714 451.23314464 1524.67202019 453.24804688 1522.45776367 C460.87418784 1513.99730985 468.31318069 1505.3744879 474.99804688 1496.14526367 C475.85010993 1494.98842288 476.70306423 1493.83223829 477.55664062 1492.67651367 C480.38503326 1488.84333577 483.19406068 1484.99631481 485.99804688 1481.14526367 C486.64128906 1480.26612305 487.28453125 1479.38698242 487.94726562 1478.48120117 C492.24067498 1472.49644873 496.01101692 1466.24606528 499.75585938 1459.91088867 C501.71680584 1456.59750768 503.7561221 1453.33915481 505.81054688 1450.08276367 C517.13394789 1431.73026542 527.55099397 1412.39761486 534.99804688 1392.14526367 C535.86899234 1389.88947364 536.75031257 1387.63791605 537.63305664 1385.38671875 C539.09989307 1381.64414294 540.5495292 1377.89495958 541.99804688 1374.14526367 C542.38089844 1373.15655273 542.76375 1372.1678418 543.15820312 1371.14916992 C545.47213465 1364.99429943 547.35478354 1358.73945425 549.16064453 1352.42041016 C550.18753371 1348.83562568 551.27708513 1345.29544742 552.49414062 1341.77026367 C554.15747264 1336.841283 555.34274383 1331.83868995 556.49804688 1326.77026367 C557.71358029 1321.48465384 558.95986913 1316.23487445 560.46630859 1311.02368164 C562.03232149 1305.30511477 562.98220916 1299.6071009 563.78710938 1293.73901367 C563.93586517 1292.6930603 564.08462097 1291.64710693 564.23788452 1290.56945801 C564.54861842 1288.37497786 564.85600329 1286.18002107 565.16015625 1283.98461914 C565.62198281 1280.65294 566.09426433 1277.32287319 566.56835938 1273.99291992 C566.87105541 1271.8458708 567.1731586 1269.69873799 567.47460938 1267.55151367 C567.61315338 1266.57098022 567.75169739 1265.59044678 567.8944397 1264.5802002 C569.54393852 1252.62920094 570.14945836 1240.90774507 570.13085938 1228.84838867 C570.13153517 1227.28578679 570.13250747 1225.72318502 570.13375854 1224.1605835 C570.13522432 1220.89960724 570.13311844 1217.63865857 570.12841797 1214.37768555 C570.12274048 1210.24183562 570.12599432 1206.1060509 570.13199043 1201.9702034 C570.13564283 1198.74586516 570.13443591 1195.5215418 570.13186264 1192.29720306 C570.13120524 1190.77450299 570.13197918 1189.25180147 570.13434219 1187.72910309 C570.15118397 1173.8235143 569.57820138 1160.1355769 567.24804688 1146.39526367 C567.07466797 1145.34669189 566.90128906 1144.29812012 566.72265625 1143.21777344 C566.1604122 1139.85796787 565.58253313 1136.50126875 564.99804688 1133.14526367 C564.79630859 1131.98687988 564.59457031 1130.82849609 564.38671875 1129.63500977 C562.04674877 1116.33789195 559.52581225 1103.18078694 555.99804688 1090.14526367 C555.52238281 1088.2793457 555.52238281 1088.2793457 555.03710938 1086.37573242 C553.04815047 1078.65061605 550.72970631 1071.11690159 548.15039062 1063.57495117 C547.18969007 1060.71564578 546.31842679 1057.85922032 545.49804688 1054.95776367 C544.09238177 1050.14975008 542.15695439 1045.62021453 540.18554688 1041.02026367 C539.1682718 1038.55738718 538.29622855 1036.12243264 537.49804688 1033.58276367 C536.09059383 1029.17751516 534.19472541 1025.0661816 532.24023438 1020.87963867 C531.1270856 1018.42931119 530.13936915 1015.97315338 529.18554688 1013.45776367 C526.29022726 1006.12141596 522.60927498 999.14798505 518.99804688 992.14526367 C518.59215332 991.35812988 518.18625977 990.57099609 517.76806641 989.76000977 C506.75557837 968.47825985 494.3294059 948.36872775 479.99804688 929.14526367 C478.68387263 927.33397724 477.37142152 925.52143955 476.06054688 923.70776367 C474.70804866 921.85237962 473.35382809 919.9982501 471.99804688 918.14526367 C471.26457031 917.14108398 470.53109375 916.1369043 469.77539062 915.10229492 C465.74574212 909.64879119 461.60318922 904.44219282 457.03710938 899.43041992 C453.93896282 895.95835913 451.03422232 892.33366851 448.09960938 888.72338867 C444.40965145 884.19667448 440.69993307 879.80730568 436.55078125 875.69360352 C434.67300171 873.82113844 432.81675561 871.92820524 430.95898438 870.03588867 C422.94787655 861.91227999 414.99023949 854.17663746 405.99804688 847.14526367 C404.71867692 846.02998125 403.44749411 844.9052225 402.18554688 843.77026367 C393.29820206 835.92312143 383.77622422 828.83386565 373.99804688 822.14526367 C372.92490234 821.37375977 372.92490234 821.37375977 371.83007812 820.58666992 C360.03359893 812.12000585 347.5448063 804.44739697 334.99804688 797.14526367 C333.42410156 796.22874023 333.42410156 796.22874023 331.81835938 795.29370117 C313.04292431 784.43069507 293.86150303 775.20162238 273.66601562 767.23901367 C271.7167395 766.43989608 269.78369834 765.60084839 267.86132812 764.73901367 C260.65187067 761.51654238 253.56007683 758.95636494 245.94702148 756.88183594 C242.69350297 755.98693329 239.74114103 755.03131591 236.64257812 753.65698242 C232.05946196 751.7559471 227.45652994 750.71553492 222.62304688 749.64526367 C217.53963065 748.50991855 212.54743969 747.39455243 207.64648438 745.61401367 C203.06260327 744.03223772 198.48954853 743.34978615 193.69726562 742.67700195 C189.57417402 742.08433475 185.47666934 741.38539882 181.37304688 740.67260742 C165.64131898 737.97984117 150.1992135 735.41905612 134.19866943 735.2270813 C132.08534743 735.14850945 130.05154404 734.9242387 127.95605469 734.64697266 C122.46628821 734.01776312 117.01847966 734.00148494 111.49804688 734.01245117 C109.88446289 734.01101608 109.88446289 734.01101608 108.23828125 734.009552 C105.97591086 734.00887496 103.71353847 734.01069584 101.45117188 734.01489258 C98.00841872 734.02024754 94.56579602 734.0149313 91.12304688 734.00854492 C88.91471326 734.00920579 86.70637972 734.01048713 84.49804688 734.01245117 C83.47904297 734.01042694 82.46003906 734.00840271 81.41015625 734.00631714 C76.17232416 734.02331533 71.07673361 734.26935952 65.87921143 734.92059326 Z " fill="#000000" transform="translate(1935.001953125,886.854736328125)"/>
<path d="M0 0 C3.24344548 0.00382684 6.48688794 0.00586048 9.73033524 0.00746536 C51.16990911 0.03134752 92.60867996 0.25485486 134.04731655 0.5190475 C138.99593197 0.55056741 143.94455197 0.58113206 148.8931784 0.61087006 C157.58251047 0.6631214 166.27179798 0.72003356 174.96106911 0.7815876 C177.85931693 0.80199853 180.75756699 0.82076575 183.65583611 0.83788109 C198.17955605 0.92476996 212.68587142 1.13653035 227.20174026 1.64024734 C247.29137076 2.32627551 267.38195886 2.27568945 287.48111916 2.26309824 C292.91985366 2.2605148 298.35858673 2.26292817 303.79732132 2.26448441 C312.91089055 2.26628779 322.02445159 2.26394719 331.13801956 2.25914383 C341.6020312 2.25369163 352.06602337 2.25547827 362.53003454 2.26097023 C371.60532721 2.2655384 380.68061409 2.26613433 389.75590754 2.26353157 C395.13687744 2.26199069 400.51783825 2.26171393 405.89880753 2.26506805 C435.13903839 2.28795451 435.13903839 2.28795451 464.36067581 1.36006546 C472.68269282 0.96359985 481.00828711 0.94494965 489.33821487 0.92564774 C490.61837101 0.92140667 490.61837101 0.92140667 491.92438889 0.91707993 C496.40413058 0.90237281 500.88384221 0.89295485 505.3636055 0.88853836 C509.96423553 0.88296184 514.56458314 0.85866608 519.16512299 0.83056641 C522.74245949 0.81198071 526.31972546 0.80673755 529.89710617 0.80520248 C531.59555301 0.8021878 533.29399895 0.79419954 534.99239731 0.7810173 C537.34780935 0.76397331 539.70249289 0.76582765 542.05794144 0.77232742 C543.09415131 0.75850525 543.09415131 0.75850525 544.15129471 0.74440384 C549.42757973 0.79004059 552.55912929 2.20885788 556.33821487 5.81236649 C557.0729805 6.68055008 557.0729805 6.68055008 557.82258987 7.56627274 C558.32274612 8.14248367 558.82290237 8.71869461 559.33821487 9.31236649 C561.9166401 13.10656816 561.70233978 17.09058552 561.7168417 21.56610394 C561.72028311 22.21347168 561.72372452 22.86083942 561.72727022 23.52782437 C561.73763109 25.7060491 561.74092511 27.8842273 561.74426651 30.0624733 C561.75026351 31.63646069 561.7566887 33.21044651 561.76350623 34.78443056 C561.78099203 39.11709132 561.79226408 43.44974958 561.80251658 47.78243268 C561.81462162 52.45274187 561.83238497 57.12303005 561.84938431 61.79332352 C561.88172664 70.94792916 561.90854409 80.10254302 561.93318709 89.25717234 C561.95324168 96.70071596 561.97483827 104.14425349 561.99752617 111.58778954 C562.06166409 132.69256576 562.12158156 153.79734803 562.17620828 174.90215104 C562.17915532 176.04049333 562.18210236 177.17883562 562.1851387 178.35167313 C562.18808844 179.49140654 562.19103817 180.63113996 562.19407729 181.80541075 C562.24210241 200.26157091 562.30018348 218.71768392 562.36283638 237.17379969 C562.42705376 256.12540841 562.48366528 275.0770268 562.53240424 294.02868181 C562.5599232 304.66797781 562.5905756 315.30724336 562.62941933 325.94650459 C562.66244861 335.00910512 562.68840326 344.07169207 562.70527562 353.13433766 C562.71408077 357.75564501 562.72611939 362.37688222 562.74708366 366.99815178 C562.76622301 371.23553867 562.77583154 375.47284029 562.77810714 379.7102688 C562.78055577 381.23662518 562.78638084 382.76298102 562.79608019 384.28930854 C562.95187133 409.80712857 562.95187133 409.80712857 555.03352737 418.22642899 C549.04338317 422.85690554 542.08865309 425.11410333 534.94758987 427.37877274 C526.29411756 430.18908427 517.73692405 433.20615078 509.20003128 436.35167313 C504.43367958 438.10351567 499.66370012 439.77901878 494.82258987 441.31627274 C490.44560283 442.74422595 486.51452914 444.58614301 482.44368362 446.72252274 C478.84744238 448.48394702 475.16370354 449.95399499 471.44758987 451.44127274 C463.59643485 454.6084311 456.07538707 458.24855937 448.55208206 462.12144852 C446.58207107 463.12394794 444.60030773 464.09744229 442.61165237 465.06236649 C434.79013735 468.87031047 427.22350652 472.9627194 419.77009964 477.4525032 C415.97323819 479.73806582 412.14229278 481.92526853 408.24446487 484.03502274 C402.63625732 487.07326591 397.12405756 490.25578522 391.63508987 493.50377274 C390.67361038 494.072491 389.71213089 494.64120926 388.72151566 495.22716141 C381.84518811 499.31888447 375.16561178 503.59363193 368.57258987 508.12877274 C366.61536946 509.42212515 364.65700098 510.7137416 362.69758987 512.00377274 C352.9890482 518.47613385 343.57943761 525.37514179 334.16243362 532.26158524 C331.59596458 534.11192038 328.99534373 535.90342763 326.38508987 537.69127274 C322.59271598 540.33281619 319.12402461 543.16163438 315.69368362 546.25377274 C313.25194373 548.41221684 310.73263951 550.4558224 308.19758987 552.50377274 C299.93741627 559.23846968 292.16774363 566.47924634 284.38508987 573.75377274 C283.71969193 574.37526199 283.05429398 574.99675125 282.36873245 575.63707352 C278.56823467 579.20373085 274.8415057 582.82693016 271.18928909 586.54552078 C269.48252301 588.21697624 267.70590476 589.77049249 265.88508987 591.31627274 C258.23893017 597.92112664 251.08100452 605.18718363 244.53743362 612.88267899 C242.3826408 615.34591134 240.15447677 617.72837688 237.91389847 620.11339188 C231.84546656 626.57631502 226.09374896 633.18734955 220.57258987 640.12877274 C219.6531711 641.25731816 218.73252952 642.38486812 217.81087112 643.51158524 C211.75784931 650.94480428 206.01199703 658.54827116 200.44221878 666.34996414 C196.77425891 671.48598837 193.01574098 676.54118638 189.19758987 681.56627274 C184.65467859 687.56684179 180.52677509 693.72237963 176.57258987 700.12877274 C174.11871185 703.87481944 171.61109216 707.58490303 169.11165237 711.30064774 C166.39952369 715.34731594 163.7168647 719.41241125 161.07258987 723.50377274 C160.28368362 724.7219368 160.28368362 724.7219368 159.47883987 725.96471024 C156.6856655 730.6009218 154.13986681 735.36464136 151.57258987 740.12877274 C151.06034866 741.07655594 150.54810745 742.02433914 150.02034378 743.00084305 C148.38932052 746.02125649 146.76170108 749.04348105 145.13508987 752.06627274 C144.53672318 753.17800858 143.93835648 754.28974442 143.32185745 755.43516922 C139.11649642 763.25182745 134.91688624 771.07156102 130.72371292 778.89476395 C129.76502645 780.68206934 128.80467606 782.46847272 127.84407425 784.2547493 C125.15368395 789.26634384 122.47702827 794.2800093 119.90852737 799.35533524 C109.48747444 819.88736817 109.48747444 819.88736817 99.57258987 823.12877274 C91.71563103 824.77842391 84.11994045 825.41655112 76.10774612 825.35924149 C74.4572728 825.35916595 74.4572728 825.35916595 72.77345657 825.3590889 C69.06056271 825.35541555 65.34793026 825.33614091 61.63508987 825.31627274 C59.58119325 825.30986834 57.52729594 825.30491471 55.47339535 825.29996395 C30.26611186 825.23584097 5.0599045 824.939016 -20.14527512 824.62221146 C-47.09238524 824.28384247 -74.03783428 824.08147113 -100.9867273 823.9778232 C-107.48411043 823.95281543 -113.9814801 823.92546504 -120.4788475 823.8966713 C-122.34512233 823.88845476 -124.21139716 823.88024013 -126.077672 823.8720274 C-128.88568678 823.85966082 -131.6937014 823.84726366 -134.50171554 823.83475316 C-145.7244975 823.78498611 -156.94722828 823.7448043 -168.17009181 823.71912855 C-175.30514234 823.70206018 -182.44010369 823.6743137 -189.57508546 823.63869864 C-193.75689578 823.61825008 -197.93857275 823.60296418 -202.12043571 823.60071373 C-206.00200792 823.5985727 -209.88328011 823.58266265 -213.76476061 823.55623138 C-215.17471556 823.54906022 -216.58470694 823.54688796 -217.99467599 823.55029881 C-235.190327 823.58534055 -235.190327 823.58534055 -241.80241013 818.19127274 C-246.21430454 809.87654865 -246.87001276 800.6438667 -246.82613754 791.39693069 C-246.83278472 790.27517276 -246.8394319 789.15341482 -246.84628052 787.99766421 C-246.8648407 784.25660509 -246.8623081 780.51586862 -246.85978317 776.77476883 C-246.86716762 774.06242411 -246.87902061 771.35010291 -246.8906498 768.63777351 C-246.913481 762.75783715 -246.92531498 756.87795988 -246.92976189 750.99798203 C-246.93635771 742.2866752 -246.95972398 733.57546981 -246.98637786 724.86420417 C-247.03316508 709.38332534 -247.0629144 693.9024494 -247.08542594 678.42151833 C-247.10512012 664.92155493 -247.13108062 651.42162061 -247.16294479 637.92168045 C-247.1671921 636.1138016 -247.17143912 634.30592275 -247.17568588 632.49804389 C-247.18208493 629.7772695 -247.18848801 627.05649512 -247.19490522 624.33572077 C-247.29991699 579.6800001 -247.36556472 535.02424934 -247.41773945 490.3684391 C-247.42516095 484.01679105 -247.43280163 477.66514329 -247.44055557 471.31349564 C-247.49632768 425.47984434 -247.53529778 379.6462064 -247.54877121 333.81252249 C-247.55081702 326.86923031 -247.5533128 319.92593867 -247.55658722 312.98264694 C-247.56411344 296.8211109 -247.56875059 280.65958442 -247.56327242 264.49804688 C-247.56281694 263.13298416 -247.56236553 261.76792145 -247.56191826 260.40285873 C-247.56169822 259.73448237 -247.56147818 259.066106 -247.56125148 258.3774758 C-247.55997964 253.78194624 -247.56123454 249.18642184 -247.56351662 244.59089279 C-247.56639453 238.5338845 -247.56446295 232.47689677 -247.55876791 226.41989064 C-247.55748922 224.24358695 -247.55784552 222.06728149 -247.56008565 219.89097857 C-247.57626226 202.54727489 -247.44762931 185.2268499 -244.67741013 168.06627274 C-244.50403122 166.96847488 -244.33065231 165.87067703 -244.1520195 164.73961258 C-242.69916155 155.95700925 -240.68876132 147.45540246 -238.00797653 138.97008133 C-237.48365613 137.30716101 -236.99071451 135.63442614 -236.50162888 133.96080399 C-227.6568081 105.08850355 -209.35484529 77.39976914 -188.02335739 56.33360672 C-186.48314056 54.80957431 -184.95977299 53.26999658 -183.43717575 51.72838211 C-174.85472534 43.12630503 -165.4501231 36.17879123 -155.11491013 29.81627274 C-154.45168747 29.40055008 -153.78846481 28.98482742 -153.1051445 28.55650711 C-149.30071902 26.19423304 -145.45235041 24.10133554 -141.42741013 22.12877274 C-140.15333459 21.36331019 -138.88231735 20.59272642 -137.61491013 19.81627274 C-131.22044197 16.20913686 -124.20114811 14.10305698 -117.26945114 11.77183914 C-115.73482813 11.23609401 -114.22366713 10.63372691 -112.72037888 10.01549149 C-110.30914394 9.08303777 -108.0329343 8.5787233 -105.48991013 8.12877274 C-102.78543304 7.64873877 -100.30347707 7.0863372 -97.70084763 6.19517899 C-85.19785265 2.12200759 -72.00917394 0.8512647 -58.93131638 0.51549149 C-58.28089497 0.49689701 -57.63047356 0.47830254 -56.96034241 0.45914459 C-37.97863901 -0.0797993 -18.98753714 -0.02455117 0 0 Z " fill="#000000" transform="translate(1155.4274101257324,885.8712272644043)"/>
</svg>
